<?xml version="1.0" standalone="no"?>
<!DOCTYPE svg PUBLIC "-//W3C//DTD SVG 20010904//EN"
 "http://www.w3.org/TR/2001/REC-SVG-20010904/DTD/svg10.dtd">
<svg version="1.0" xmlns="http://www.w3.org/2000/svg"
 width="2000.000000pt" height="2000.000000pt" viewBox="0 0 2000.000000 2000.000000"
 preserveAspectRatio="xMidYMid meet">

<g transform="translate(0.000000,2000.000000) scale(0.100000,-0.100000)"
fill="#000000" stroke="none">
<path d="M12855 14590 c-546 -49 -1198 -410 -1869 -1035 -125 -117 -331 -324
-407 -411 l-36 -41 -254 -6 c-140 -4 -308 -11 -374 -17 -831 -72 -1688 -305
-2359 -641 -228 -114 -488 -266 -627 -366 l-50 -36 -260 13 c-276 14 -744 9
-969 -10 -576 -48 -1071 -172 -1382 -346 -172 -96 -280 -252 -318 -461 -25
-139 -12 -368 32 -573 103 -485 469 -1277 886 -1920 l74 -115 3 -315 c2 -303
8 -401 41 -630 41 -289 121 -603 216 -853 l30 -77 -42 -63 c-92 -137 -170
-333 -216 -547 -27 -124 -54 -310 -54 -372 l0 -38 -589 0 c-574 0 -589 0 -614
-20 -32 -25 -43 -72 -27 -111 26 -62 -14 -59 943 -59 l875 0 58 -35 c100 -61
175 -78 317 -73 105 3 131 8 189 31 l67 28 38 -19 c145 -74 380 -88 513 -31
49 21 51 21 137 4 170 -34 346 -9 466 65 l48 30 4450 0 c3872 0 4454 2 4478
15 57 29 65 115 14 155 -25 20 -40 20 -642 20 l-616 0 0 402 c-1 457 -13 601
-82 928 -20 96 -36 186 -36 200 0 14 22 81 48 150 105 277 178 575 227 920 20
145 17 641 -5 797 -92 653 -342 1288 -734 1867 l-95 140 -9 160 c-37 656 -119
1290 -234 1806 -200 897 -501 1396 -891 1474 -92 19 -249 26 -359 16z m274
-190 c198 -26 361 -179 511 -480 262 -524 459 -1554 516 -2702 4 -75 12 -146
18 -157 6 -11 54 -85 107 -163 217 -321 382 -639 499 -958 67 -183 91 -260
134 -438 73 -294 99 -495 99 -782 1 -223 -7 -314 -49 -560 -35 -201 -129 -567
-153 -593 -5 -4 -16 14 -26 40 -114 305 -315 595 -546 788 -426 356 -896 459
-1379 304 -92 -30 -282 -130 -365 -192 -240 -180 -405 -417 -454 -655 -23
-110 -10 -276 31 -402 50 -156 131 -267 253 -349 75 -50 207 -101 262 -101
l25 0 -6 -92 c-38 -529 -81 -861 -138 -1078 l-23 -85 -2459 -3 c-2339 -2
-2458 -1 -2451 15 4 10 22 56 39 103 30 82 31 90 30 245 0 145 -3 168 -27 248
-129 419 -456 710 -910 809 -91 20 -131 22 -372 22 -245 1 -280 -1 -375 -22
-194 -43 -356 -112 -474 -201 -38 -29 -72 -49 -76 -44 -30 31 -142 450 -180
668 -48 279 -53 355 -55 750 -1 396 -4 417 -44 430 -56 17 -469 747 -648 1145
-217 480 -315 830 -317 1125 -2 318 83 441 396 574 308 130 738 217 1233 251
193 13 739 13 920 0 270 -19 236 -25 355 56 482 327 1008 567 1630 744 582
165 1167 250 1728 250 123 0 231 4 241 10 10 5 43 40 73 77 57 71 390 404 513
514 713 637 1400 956 1914 889z m352 -5846 c360 -62 712 -310 942 -665 308
-475 461 -1269 401 -2081 l-6 -78 -1085 0 -1085 0 6 23 c3 12 19 87 35 167 48
237 82 521 101 835 16 261 14 253 77 277 48 17 54 18 82 4 146 -76 438 -51
590 50 39 25 39 25 88 9 26 -10 86 -19 133 -22 276 -16 480 134 535 393 8 38
15 86 15 107 0 99 -92 151 -161 89 -27 -24 -32 -37 -39 -97 -5 -39 -14 -87
-20 -107 -17 -58 -70 -120 -130 -153 -47 -25 -69 -30 -146 -33 -76 -4 -99 -1
-137 16 -77 34 -92 91 -76 290 4 50 2 55 -29 83 -34 31 -66 36 -105 18 -37
-17 -55 -58 -68 -155 -10 -77 -9 -99 5 -164 27 -119 29 -111 -39 -139 -44 -17
-86 -25 -156 -29 -128 -6 -184 12 -254 82 -72 72 -110 163 -130 309 -9 70 -41
102 -100 102 -39 0 -51 -5 -72 -30 -24 -27 -25 -34 -20 -105 7 -90 37 -191 82
-281 19 -37 31 -70 28 -73 -12 -12 -119 -6 -178 9 -208 55 -335 248 -335 510
0 104 16 167 67 270 140 280 457 509 790 569 107 19 280 19 394 0z m-6892
-1570 c407 -70 716 -338 813 -703 28 -108 28 -264 -2 -351 -56 -169 -187 -283
-353 -310 -37 -6 -84 -8 -105 -4 l-38 6 27 56 c42 87 60 166 66 288 l6 110
-32 27 c-37 30 -69 34 -111 12 -33 -17 -46 -54 -49 -140 -8 -260 -137 -398
-355 -382 -109 8 -190 33 -182 55 48 147 57 192 59 292 2 143 -9 216 -36 241
-41 38 -102 37 -135 -2 -14 -17 -17 -43 -17 -182 -1 -142 -4 -169 -22 -215
-51 -126 -115 -166 -263 -167 -89 0 -101 3 -164 34 -103 50 -165 148 -188 295
-10 65 -16 81 -41 102 -37 31 -78 31 -116 -2 -27 -23 -31 -32 -31 -78 0 -43
16 -119 47 -226 3 -13 -15 -15 -132 -12 l-136 3 5 32 c3 18 10 75 16 127 7 52
22 145 36 205 127 577 416 851 954 905 112 11 371 3 479 -16z"/>
<path d="M11695 10464 c-463 -43 -815 -216 -1100 -541 -135 -154 -269 -378
-269 -450 0 -44 49 -93 92 -93 50 0 73 23 125 120 136 259 357 483 601 611
359 187 775 207 1292 63 52 -15 66 -16 93 -4 85 35 77 150 -13 184 -65 24
-281 74 -396 90 -107 16 -352 27 -425 20z"/>
<path d="M7259 9339 c-343 -50 -656 -225 -897 -499 -117 -134 -172 -216 -172
-260 0 -74 73 -120 137 -87 16 9 42 35 58 59 51 75 151 192 224 261 99 93 198
161 326 223 132 64 260 99 421 114 259 25 577 -37 852 -166 52 -24 109 -44
127 -44 70 0 114 75 81 139 -41 78 -455 228 -721 260 -103 12 -352 13 -436 0z"/>
<path d="M9275 9005 c-355 -76 -479 -190 -392 -361 54 -106 172 -184 313 -207
l73 -11 25 -93 c32 -114 32 -127 1 -189 -57 -115 -132 -147 -250 -105 -76 27
-87 26 -123 -4 -66 -55 -46 -128 46 -168 l57 -24 19 -69 c62 -217 210 -384
381 -429 206 -53 522 49 669 217 100 114 145 256 152 474 l5 142 49 49 c41 41
50 56 50 85 0 46 -32 86 -74 94 -43 7 -65 -4 -144 -77 -71 -65 -190 -130 -271
-149 -81 -19 -178 -7 -265 33 -39 19 -76 40 -83 48 -6 8 -21 52 -33 99 -11 47
-23 92 -26 101 -3 12 9 25 38 42 103 60 202 205 215 316 11 95 -40 177 -125
201 -60 16 -189 10 -307 -15z m273 -980 c125 -52 297 -56 424 -10 86 32 80 35
73 -36 -16 -149 -49 -233 -122 -305 -76 -76 -253 -144 -376 -144 -132 0 -241
97 -302 269 l-14 41 44 19 c57 25 136 99 166 156 13 25 29 43 34 41 6 -3 38
-17 73 -31z"/>
</g>
</svg>
