<?xml version="1.0" standalone="no"?>
<!DOCTYPE svg PUBLIC "-//W3C//DTD SVG 20010904//EN"
 "http://www.w3.org/TR/2001/REC-SVG-20010904/DTD/svg10.dtd">
<svg version="1.0" xmlns="http://www.w3.org/2000/svg"
 width="8334.000000pt" height="8334.000000pt" viewBox="0 0 8334.000000 8334.000000"
 preserveAspectRatio="xMidYMid meet">
<metadata>
Created by potrace 1.16, written by Peter Selinger 2001-2019
</metadata>
<g transform="translate(0.000000,8334.000000) scale(0.100000,-0.100000)"
fill="#000000" stroke="none">
<path d="M57915 70539 c-938 -88 -2389 -1002 -4385 -2764 -171 -150 -575 -515
-660 -595 -9 -8 -47 -44 -86 -79 -56 -52 -272 -253 -344 -321 -140 -132 -428
-408 -783 -755 -170 -165 -313 -302 -318 -303 -5 -2 -111 24 -237 57 -741 198
-1722 406 -2407 510 -716 109 -1294 154 -1975 154 -608 1 -1066 -27 -1710
-104 -2378 -281 -4580 -995 -6547 -2121 -122 -69 -197 -107 -205 -102 -7 4
-52 38 -99 75 -682 537 -2168 1381 -3489 1981 -1562 711 -2880 1132 -3890
1245 -195 21 -649 24 -790 5 -392 -54 -699 -184 -917 -386 -183 -170 -370
-462 -502 -784 -363 -887 -475 -2303 -326 -4122 126 -1534 456 -3388 879
-4947 224 -825 526 -1722 783 -2328 113 -265 320 -686 426 -862 l86 -143 -95
-282 c-295 -882 -550 -1871 -783 -3033 -158 -790 -260 -1432 -325 -2050 -76
-719 -210 -2249 -311 -3540 -60 -774 -62 -804 -87 -995 -11 -91 -21 -166 -22
-167 -1 -1 -82 23 -181 53 -1630 499 -3416 462 -5107 -106 -423 -142 -706
-259 -1113 -460 -883 -436 -1635 -979 -2356 -1699 -651 -652 -1188 -1372
-1638 -2199 -990 -1821 -1464 -3992 -1410 -6473 31 -1458 242 -2980 631 -4549
673 -2718 1893 -5126 3612 -7130 320 -373 510 -575 925 -990 321 -320 499
-488 816 -766 2634 -2312 6175 -3999 10230 -4874 213 -46 691 -141 860 -170
66 -12 167 -30 225 -40 58 -10 140 -25 183 -32 l79 -12 111 -120 c62 -65 179
-182 262 -259 1051 -981 2367 -1594 3810 -1776 141 -18 214 -25 481 -46 128
-10 646 -13 804 -4 216 12 570 45 745 70 599 85 1248 244 1835 449 113 40 219
77 237 83 29 9 42 6 123 -32 256 -119 547 -204 830 -242 123 -17 448 -17 570
0 579 78 1097 366 1445 801 33 41 106 145 162 230 56 85 108 162 115 170 12
14 35 14 193 4 99 -6 239 -14 310 -18 72 -4 150 -9 175 -11 25 -2 101 -7 170
-10 69 -3 154 -8 190 -10 36 -3 157 -9 270 -15 1311 -63 1625 -71 2755 -66
523 2 961 7 975 9 14 3 122 8 240 12 118 3 233 8 255 10 22 2 99 6 170 10
1110 51 2498 226 3576 451 91 18 173 34 182 34 9 0 61 -34 116 -75 294 -223
673 -406 1013 -489 316 -77 668 -86 987 -25 265 51 574 172 781 306 324 211
618 524 925 983 744 1117 1338 2813 1489 4255 41 391 47 991 12 1298 -54 482
-150 837 -321 1192 -99 205 -186 328 -344 486 -359 358 -800 587 -1326 686
-124 24 -165 27 -358 28 l-218 0 -10 40 c-46 181 -121 429 -174 575 -222 612
-499 1065 -885 1450 -157 157 -276 257 -439 369 -99 67 -102 71 -70 71 19 0
115 9 214 21 922 105 1618 376 2042 797 222 219 385 504 516 903 144 434 192
937 131 1379 l-6 45 49 19 c26 10 89 41 138 68 335 186 531 468 586 838 20
137 7 386 -30 560 -73 353 -267 835 -490 1220 -59 101 -84 159 -133 305 -228
688 -476 1229 -736 1610 -189 277 -405 531 -711 835 l-237 235 -71 135 c-342
656 -862 1256 -1397 1614 -61 41 -159 101 -218 133 l-106 60 181 73 c1648 662
3072 1532 4269 2606 490 440 971 940 1389 1444 180 217 455 597 544 754 147
256 275 427 441 585 170 162 353 273 529 321 69 19 121 23 375 30 403 12 618
41 859 116 345 107 572 284 690 535 63 133 75 198 75 384 0 133 -4 176 -23
255 -65 264 -174 502 -459 1000 -55 96 -99 176 -98 176 0 1 55 -9 121 -22 296
-58 623 -74 812 -41 212 38 374 113 499 230 160 148 244 350 244 586 0 262
-88 504 -490 1341 -292 607 -474 1033 -605 1410 -25 74 -190 626 -366 1225
-707 2407 -1289 4256 -1602 5090 -373 993 -900 2054 -1540 3100 -222 362 -671
1053 -837 1287 l-33 47 17 258 c49 776 60 1173 60 2088 0 762 -6 1068 -34
1640 -88 1763 -309 3356 -641 4600 -428 1603 -1027 2665 -1794 3180 -224 150
-434 232 -656 255 -112 11 -143 11 -274 -1z m301 -888 c130 -58 297 -185 449
-342 824 -852 1425 -2888 1669 -5654 24 -277 27 -311 46 -575 15 -217 33 -553
52 -1005 15 -331 16 -2116 2 -2331 l-9 -132 -76 92 c-114 137 -353 408 -543
616 -196 214 -899 920 -1126 1131 -1884 1751 -3971 3072 -6105 3864 -143 53
-268 99 -279 103 -15 7 -7 18 55 77 41 38 198 188 349 334 2245 2168 4096
3555 5085 3810 178 46 343 51 431 12z m-27429 -3100 c788 -101 1825 -423 3048
-946 507 -217 1094 -495 1580 -747 154 -80 300 -157 325 -170 25 -14 101 -56
170 -93 740 -401 1455 -854 1817 -1151 56 -46 176 -156 266 -244 l165 -160
219 133 c1191 729 2344 1252 3647 1657 1109 344 2411 599 3571 700 66 6 143
12 170 15 365 33 1313 43 1645 17 1026 -79 1970 -242 3230 -557 1754 -439
3304 -1127 4890 -2170 1489 -980 2965 -2286 4109 -3635 312 -368 438 -531 711
-920 1239 -1767 2054 -3268 2578 -4750 151 -425 438 -1308 696 -2135 268 -863
451 -1474 921 -3075 102 -349 206 -696 231 -770 103 -305 242 -651 412 -1026
97 -214 130 -284 247 -529 259 -543 322 -684 376 -844 22 -65 26 -87 17 -93
-21 -13 -195 -9 -328 7 -246 31 -568 114 -925 241 -183 64 -194 67 -285 67
-106 0 -178 -21 -258 -75 -148 -102 -227 -281 -202 -460 16 -108 135 -399 281
-683 67 -132 152 -286 372 -675 138 -245 230 -448 262 -578 20 -85 18 -89 -58
-125 -103 -49 -287 -88 -477 -102 -47 -3 -188 -8 -315 -10 -289 -4 -397 -20
-614 -90 -510 -166 -1011 -612 -1351 -1204 -119 -207 -322 -496 -504 -716
-647 -780 -1255 -1389 -1963 -1968 -1009 -823 -2113 -1481 -3483 -2075 -1278
-553 -2728 -988 -4440 -1332 -236 -48 -368 -79 -393 -93 -21 -12 -51 -41 -67
-65 -87 -132 -11 -305 148 -335 85 -17 1482 202 1872 292 80 19 76 23 119
-116 139 -442 298 -1036 422 -1571 27 -117 49 -220 49 -229 0 -13 -15 -14
-108 -8 -96 7 -114 5 -153 -12 -62 -27 -107 -76 -141 -152 -107 -238 -302
-394 -549 -437 -167 -29 -313 -5 -484 81 -75 38 -99 45 -147 45 -32 0 -76 -7
-98 -16 l-39 -16 -108 55 c-451 229 -927 367 -1411 408 -179 15 -582 6 -742
-16 -424 -58 -815 -176 -1172 -351 -61 -30 -111 -54 -112 -52 -1 2 -15 37 -31
78 -71 187 -218 435 -353 595 l-59 69 44 67 c161 250 281 600 313 918 47 467
-78 970 -337 1361 -68 102 -194 261 -246 308 l-25 24 43 61 c265 381 401 884
365 1352 -51 662 -390 1242 -939 1606 -320 212 -671 328 -1048 346 -73 3 -133
7 -133 7 0 1 -20 154 -44 340 -49 368 -52 382 -114 400 -39 11 -87 -7 -109
-41 -14 -21 -15 -65 -9 -372 l6 -348 -77 -13 c-43 -7 -132 -27 -198 -45 -497
-137 -936 -462 -1218 -902 -108 -169 -213 -410 -261 -598 -53 -210 -60 -275
-60 -530 -1 -261 8 -338 64 -551 85 -322 266 -651 487 -885 l54 -57 -63 -93
c-171 -255 -292 -578 -333 -888 -17 -125 -19 -401 -5 -521 50 -413 215 -799
475 -1110 36 -43 65 -80 65 -83 0 -3 -16 -29 -35 -59 -98 -148 -204 -390 -255
-582 -56 -214 -64 -280 -65 -546 0 -231 2 -253 29 -385 123 -605 461 -1096
969 -1412 234 -144 554 -261 804 -294 49 -6 95 -14 103 -19 10 -4 16 -25 18
-59 2 -32 -1 -51 -7 -47 -11 7 -183 44 -261 56 -123 19 -755 132 -895 161
-743 151 -1626 480 -2371 884 -485 264 -760 444 -1734 1135 -619 439 -636 450
-687 456 -45 6 -116 -27 -146 -67 -30 -41 -34 -110 -9 -158 86 -164 424 -569
658 -786 522 -485 1297 -1001 2089 -1390 841 -413 1554 -642 2495 -800 599
-100 863 -159 1165 -260 402 -134 658 -279 879 -500 258 -257 393 -559 435
-974 20 -195 22 -188 -65 -271 -143 -135 -375 -262 -619 -339 -279 -87 -472
-114 -842 -115 -268 -1 -284 -2 -310 -22 -87 -63 -79 -192 14 -247 39 -22 276
-62 466 -77 184 -16 560 -8 707 14 180 27 426 95 583 161 21 9 23 25 -28 -186
-64 -268 -169 -538 -303 -784 -36 -66 -82 -136 -102 -155 -48 -46 -220 -146
-350 -203 -221 -98 -462 -164 -760 -209 -103 -15 -204 -21 -430 -25 -328 -6
-343 -8 -382 -71 -45 -72 -20 -170 53 -208 16 -8 76 -23 132 -33 213 -39 314
-46 670 -46 191 0 347 -1 347 -1 0 -1 -41 -30 -91 -64 -658 -450 -1521 -648
-2484 -569 -495 40 -1118 162 -1515 296 -908 306 -1907 962 -2880 1892 -96 92
-187 175 -202 185 -16 10 -46 18 -73 18 -87 0 -155 -66 -155 -152 0 -53 23
-96 147 -272 295 -421 783 -935 1211 -1278 76 -61 90 -76 75 -82 -10 -3 -74
-16 -143 -28 -227 -39 -545 -125 -601 -163 -96 -65 -116 -199 -43 -287 56 -66
43 -64 539 -65 482 -1 589 -9 895 -61 1084 -185 1793 -821 2159 -1938 41 -124
98 -338 126 -472 4 -18 -3 -24 -43 -39 -295 -111 -614 -332 -840 -585 -178
-199 -305 -392 -438 -665 -182 -375 -299 -779 -374 -1288 -52 -352 -58 -454
-55 -902 2 -346 5 -438 24 -590 43 -359 98 -646 177 -921 60 -211 75 -239 148
-276 99 -51 217 -14 267 84 25 48 48 299 74 773 14 269 26 474 40 680 3 39 10
140 15 225 13 188 45 512 65 658 139 999 498 1673 1044 1955 120 62 248 108
378 134 70 14 134 18 308 17 199 0 232 -3 348 -27 273 -58 529 -162 722 -294
481 -328 768 -1034 836 -2053 11 -166 7 -785 -7 -935 -51 -574 -112 -990 -215
-1450 -209 -942 -567 -1870 -906 -2348 -204 -287 -525 -486 -893 -553 -113
-21 -354 -20 -490 0 -201 31 -436 104 -604 188 -76 38 -84 40 -255 56 l-176
16 -168 -63 c-1081 -400 -2091 -588 -3057 -568 -1221 26 -2319 362 -3300 1012
-728 482 -1371 1160 -1696 1790 -190 368 -397 926 -537 1450 -278 1036 -384
2333 -292 3538 3 37 7 97 10 135 78 1043 296 2275 626 3537 221 845 426 1526
764 2540 332 998 593 1727 1267 3535 807 2166 1174 3215 1478 4219 49 161 91
296 94 298 2 3 94 -25 203 -60 1281 -421 2532 -690 3908 -841 665 -73 1523
-125 1608 -97 125 42 182 198 114 314 -49 84 -82 97 -280 119 -831 90 -1504
189 -2162 318 -2057 405 -3840 1047 -5515 1988 -722 406 -1316 792 -2445 1591
-781 554 -1091 732 -1420 817 -87 22 -132 27 -350 35 -295 10 -481 24 -624 45
-113 17 -242 54 -280 80 -23 17 -24 19 -18 133 8 168 53 341 234 896 116 359
200 683 248 960 19 108 20 214 4 281 -67 272 -365 432 -619 330 -30 -12 -122
-63 -205 -113 -450 -272 -863 -451 -1129 -489 l-48 -7 6 54 c24 186 49 303
201 929 175 721 247 1065 304 1465 33 227 49 386 81 820 16 226 32 437 35 470
3 33 10 123 15 200 6 77 13 167 15 200 3 33 23 285 45 560 96 1202 125 1538
185 2125 52 524 90 840 125 1055 10 66 33 210 50 320 78 498 219 1250 330
1760 92 423 240 1031 310 1275 17 58 33 116 36 130 5 27 118 411 160 545 35
109 186 556 232 685 l38 105 -74 108 c-44 64 -70 112 -66 120 4 6 3 9 -1 4
-10 -8 -25 13 -101 141 -32 53 -52 97 -48 105 4 6 3 9 -1 4 -8 -7 -55 65 -59
89 -1 7 -7 18 -13 25 -24 30 -139 279 -240 519 -153 363 -247 615 -236 632 3
6 2 8 -4 5 -9 -5 -219 597 -226 648 -1 11 -5 25 -8 30 -16 27 -259 859 -273
931 -3 16 -17 70 -31 119 -52 182 -155 600 -151 612 3 6 1 13 -3 15 -18 7
-193 794 -302 1358 -47 244 -132 725 -154 865 -8 55 -26 172 -40 260 -30 188
-86 592 -83 603 1 4 -2 18 -5 32 -23 86 -110 982 -144 1490 -22 328 -25 1441
-5 1700 29 365 73 692 128 951 33 157 103 413 115 417 5 2 7 7 4 12 -5 9 36
126 88 249 61 145 176 321 262 400 85 78 245 136 440 160 126 15 496 5 682
-18z m-4052 -23167 c531 -39 1038 -123 1480 -245 107 -30 427 -128 433 -134 1
-1 -24 -110 -57 -241 -33 -131 -63 -256 -66 -276 -4 -21 -11 -35 -16 -32 -5 3
-6 -1 -3 -9 3 -8 -8 -68 -24 -133 -149 -598 -200 -904 -188 -1116 12 -230 89
-417 232 -563 32 -33 57 -64 56 -68 -1 -5 1 -6 6 -3 12 7 123 -69 115 -79 -5
-4 -3 -5 3 -2 6 3 38 -5 72 -19 127 -51 216 -67 377 -67 161 0 270 15 435 59
118 32 297 94 415 145 50 21 93 39 97 39 7 0 3 -12 -90 -305 -118 -372 -170
-590 -193 -815 -22 -224 10 -447 88 -603 13 -26 21 -53 17 -60 -4 -7 -4 -9 1
-5 8 8 55 -52 55 -70 0 -5 11 -19 25 -32 13 -12 22 -27 19 -32 -3 -5 -2 -8 3
-6 4 1 31 -20 58 -46 28 -26 82 -69 122 -96 40 -26 69 -51 65 -55 -4 -5 -2 -5
4 -2 7 4 52 -12 100 -35 235 -110 617 -168 1107 -168 192 0 264 -7 322 -31 17
-7 33 -12 36 -11 10 2 221 -103 281 -140 32 -19 55 -38 50 -43 -4 -5 -1 -5 6
-1 14 8 102 -39 102 -54 0 -6 3 -9 8 -8 11 4 182 -102 182 -113 0 -6 4 -8 8
-5 5 3 24 -8 43 -24 19 -16 37 -29 42 -30 7 0 34 -17 184 -118 29 -19 50 -38
48 -42 -3 -4 3 -7 13 -6 9 0 16 -5 14 -12 -1 -8 2 -11 7 -7 6 3 57 -26 115
-66 l104 -72 11 -71 c43 -270 63 -813 42 -1121 -27 -389 -88 -726 -199 -1110
-59 -203 -217 -599 -235 -588 -6 3 -7 1 -3 -5 6 -10 -37 -109 -53 -122 -3 -3
-7 -12 -9 -20 -4 -19 -80 -156 -95 -173 -7 -7 -13 -17 -14 -24 -6 -33 -140
-228 -156 -228 -7 -1 -11 -6 -9 -13 2 -13 -69 -115 -90 -129 -31 -19 -308 -64
-513 -83 -142 -13 -516 -13 -681 0 -300 24 -462 52 -639 112 -259 87 -460 211
-650 402 -175 176 -298 352 -422 606 -310 634 -479 1503 -572 2950 -31 474
-40 564 -66 698 -25 121 -76 290 -118 387 -299 696 -974 1157 -1847 1260 -197
24 -171 39 -229 -137 -130 -399 -222 -822 -268 -1235 l-17 -151 -36 -6 c-19
-3 -69 -6 -110 -6 -151 0 -397 -37 -610 -90 -1124 -284 -2121 -1228 -2784
-2637 -542 -1154 -871 -2564 -946 -4058 -14 -276 -10 -1054 6 -1322 114 -1885
623 -3612 1504 -5108 704 -1194 1703 -2318 2955 -3324 1719 -1381 3936 -2574
6555 -3526 102 -37 188 -70 192 -74 4 -3 17 -87 28 -186 12 -99 33 -254 46
-345 14 -91 30 -194 35 -230 16 -111 97 -504 140 -678 148 -605 395 -1299 619
-1742 38 -74 67 -136 66 -138 -4 -3 -464 92 -716 148 -1655 369 -3233 882
-4690 1525 -4222 1862 -7217 4663 -8960 8380 -359 765 -695 1668 -944 2535
-383 1335 -674 2946 -761 4210 -3 47 -8 114 -10 150 -48 695 -48 1464 0 2150
136 1931 662 3653 1556 5091 536 861 1221 1627 2004 2240 440 344 895 629
1410 884 385 191 654 301 1040 428 714 234 1333 346 2165 391 82 5 672 -3 765
-10z m20390 -5073 c30 -13 47 -31 70 -72 26 -48 30 -66 33 -155 5 -119 -11
-194 -65 -303 -64 -133 -198 -243 -345 -286 -139 -40 -332 -36 -494 10 -242
69 -424 219 -326 268 15 8 110 35 212 60 448 111 669 225 780 405 43 68 65 92
84 92 6 0 29 -9 51 -19z m-20635 -395 c425 -98 701 -432 824 -996 46 -212 57
-341 66 -770 9 -405 18 -571 46 -815 117 -1026 434 -1792 959 -2320 401 -403
896 -650 1521 -760 360 -63 904 -72 1179 -20 212 40 408 110 638 227 146 74
378 223 502 323 284 228 564 530 779 840 446 642 738 1421 845 2256 35 276 45
439 46 765 l0 321 55 -35 c971 -624 1989 -1158 3001 -1577 129 -53 238 -101
242 -105 14 -13 -183 -658 -408 -1335 -264 -793 -521 -1508 -1205 -3345 -711
-1908 -1089 -2978 -1426 -4035 -640 -2003 -1020 -3676 -1178 -5185 -57 -534
-75 -861 -83 -1437 -3 -260 -8 -473 -10 -473 -11 0 -526 197 -763 292 -1137
456 -2146 937 -3085 1471 -974 554 -1868 1170 -2620 1807 -93 79 -172 147
-175 150 -3 3 -25 23 -50 44 -233 202 -564 520 -787 755 -1128 1186 -1869
2402 -2354 3861 -497 1498 -668 3180 -488 4800 130 1170 435 2263 880 3150
226 450 477 832 753 1145 39 44 85 95 101 114 67 76 317 299 431 385 414 310
783 458 1294 520 78 9 407 -3 470 -18z m20942 -2212 c189 -203 327 -474 388
-759 34 -157 39 -423 11 -584 -75 -440 -331 -833 -706 -1086 -92 -62 -290
-157 -392 -189 -227 -71 -501 -94 -719 -62 -522 77 -967 392 -1208 856 -267
514 -237 1127 79 1620 l44 69 123 -64 c154 -80 293 -134 446 -174 583 -152
1206 -50 1699 279 65 43 134 92 153 109 19 16 36 30 37 31 2 0 22 -21 45 -46z
m8179 -4 c252 -47 638 -251 934 -494 402 -331 772 -807 1043 -1341 l71 -140
156 -144 c250 -230 543 -558 722 -807 265 -369 506 -888 737 -1587 54 -165 76
-216 141 -329 326 -564 524 -1165 487 -1469 -30 -241 -142 -408 -344 -514
l-68 -36 -17 43 c-37 94 -135 278 -198 373 -221 331 -484 556 -893 763 -198
101 -331 160 -537 237 l-140 53 -5 494 c-5 437 -7 498 -23 537 -62 158 -170
267 -324 329 l-68 27 -1653 3 c-1820 3 -1715 6 -1844 -59 -133 -67 -250 -225
-277 -373 -7 -38 -11 -282 -11 -680 l-1 -621 -52 -35 c-184 -124 -385 -310
-499 -460 -138 -183 -291 -526 -339 -757 -13 -62 -14 -63 -45 -63 -44 0 -286
45 -406 76 -324 82 -597 222 -731 375 -104 118 -154 271 -142 428 25 322 256
772 598 1164 43 49 84 102 92 118 9 16 24 95 35 176 51 377 138 807 211 1046
15 52 24 67 35 63 64 -25 226 -46 351 -47 273 0 511 74 727 229 94 68 237 215
296 305 l42 64 98 7 c311 20 567 129 779 331 185 176 300 384 357 645 15 67
19 124 18 265 -1 160 -4 191 -27 276 -14 53 -37 125 -52 160 -49 118 -50 124
-27 156 72 101 152 304 177 452 28 155 14 444 -26 549 -16 41 -10 51 39 76
104 52 327 125 427 139 58 8 123 7 176 -3z m-1121 -337 c69 -249 11 -502 -159
-696 -65 -74 -81 -106 -88 -172 -7 -68 7 -111 73 -215 113 -181 148 -407 91
-599 l-12 -44 -77 309 c-95 380 -185 711 -284 1039 -42 138 -78 257 -81 266
-4 13 37 26 224 74 125 32 237 62 248 66 41 16 54 10 65 -28z m-6798 -2365
c144 -181 254 -403 303 -616 141 -604 -61 -1216 -533 -1612 -217 -182 -453
-295 -737 -352 -162 -33 -443 -33 -605 1 -309 64 -584 208 -809 425 -98 95
-224 253 -214 269 3 7 2 8 -2 4 -20 -18 -144 225 -195 383 -60 184 -75 285
-75 510 0 212 10 279 66 465 25 81 130 317 167 373 7 10 19 7 55 -17 165 -112
481 -239 697 -280 392 -76 790 -47 1145 81 230 84 481 229 648 375 20 18 41
33 46 33 5 0 24 -19 43 -42z m4055 -801 c-3 -8 -23 -83 -46 -168 -64 -245
-134 -603 -175 -897 -14 -100 -15 -101 -68 -164 -29 -35 -66 -80 -82 -100 -15
-21 -33 -35 -39 -31 -6 3 -7 1 -3 -5 4 -7 -12 -37 -37 -69 -24 -32 -49 -68
-56 -81 -7 -12 -17 -20 -23 -16 -6 4 -8 3 -5 -3 4 -6 -22 -55 -58 -109 -36
-53 -65 -101 -65 -106 0 -5 -5 -6 -12 -2 -7 4 -8 3 -4 -5 4 -6 -6 -33 -21 -59
-16 -26 -55 -102 -86 -169 -225 -485 -245 -895 -61 -1239 18 -34 31 -64 29
-68 -3 -3 -2 -4 2 -1 10 8 55 -65 49 -80 -3 -8 0 -12 7 -9 7 2 41 -28 77 -68
72 -82 107 -111 232 -197 47 -32 85 -62 82 -65 -2 -3 -1 -4 2 -2 3 3 43 -14
88 -37 242 -126 563 -228 856 -272 25 -4 49 -10 55 -13 5 -3 21 -6 35 -7 14
-1 43 -2 66 -3 l41 -2 6 -187 c7 -198 17 -310 43 -458 9 -49 17 -101 19 -115
1 -14 5 -32 8 -40 3 -8 17 -60 31 -115 13 -55 28 -109 32 -119 6 -15 4 -17 -7
-11 -10 6 -10 4 2 -11 8 -10 33 -66 54 -124 21 -58 57 -149 81 -202 23 -54 40
-98 36 -98 -4 0 -2 -4 4 -8 16 -11 139 -234 136 -246 -2 -6 0 -8 4 -4 4 4 22
-14 40 -41 17 -28 44 -66 59 -85 15 -20 24 -36 20 -36 -4 0 2 -8 13 -17 38
-33 111 -126 106 -135 -3 -5 -1 -7 4 -6 5 2 46 -34 91 -78 44 -45 117 -110
161 -145 58 -45 77 -65 68 -72 -9 -6 -7 -7 5 -3 21 7 61 -17 49 -29 -4 -5 -2
-5 4 -2 6 3 28 -5 49 -20 65 -44 177 -105 272 -148 51 -23 90 -45 86 -49 -4
-4 0 -4 9 -1 9 4 27 1 40 -6 13 -7 28 -14 33 -15 6 -1 57 -18 115 -37 58 -20
155 -50 215 -67 61 -17 117 -34 125 -37 8 -3 20 -7 25 -8 6 0 31 -5 56 -9 l46
-8 6 -141 c7 -146 19 -393 37 -737 25 -456 31 -831 37 -1975 3 -755 1 -1411
-6 -1744 -11 -510 -10 -535 7 -575 52 -117 204 -152 302 -69 60 50 66 75 99
408 54 545 112 1218 161 1875 6 74 12 162 15 195 5 61 37 553 55 855 10 161
24 440 35 670 3 63 8 153 10 200 2 47 7 186 11 310 3 124 8 227 10 229 2 3 55
-8 117 -23 328 -81 618 -216 875 -408 132 -98 359 -328 465 -469 210 -281 363
-579 498 -967 43 -123 139 -463 139 -491 0 -10 -27 -30 -67 -50 -304 -158
-641 -474 -895 -841 -431 -623 -733 -1530 -862 -2590 -41 -335 -58 -552 -59
-781 l-2 -215 28 -42 c73 -111 257 -111 325 0 11 18 41 123 67 233 77 327 189
765 255 995 259 906 574 1596 927 2035 100 124 303 321 410 398 376 268 804
332 1254 186 149 -48 378 -166 499 -257 232 -175 339 -324 447 -622 111 -305
165 -668 167 -1115 2 -461 -37 -849 -140 -1395 -241 -1280 -830 -2695 -1458
-3499 -106 -137 -300 -338 -395 -409 -141 -106 -351 -199 -551 -244 -91 -20
-131 -23 -300 -23 -164 1 -211 4 -300 23 -297 64 -609 216 -870 422 -82 64
-84 65 -262 116 -177 51 -180 52 -236 39 -163 -38 -531 -112 -792 -160 -1891
-345 -3947 -457 -6505 -355 -570 23 -1754 86 -1762 94 -2 2 28 86 66 187 316
845 548 1884 626 2809 18 214 39 676 31 696 -3 7 -6 116 -7 241 -7 821 -185
1596 -490 2136 -291 513 -673 850 -1214 1070 -311 127 -628 198 -948 214 -78
3 -135 10 -139 17 -4 6 -8 25 -8 41 0 17 -11 96 -25 175 -82 468 -267 951
-504 1317 -38 59 -69 108 -68 109 1 1 61 -5 132 -14 169 -19 835 -22 1010 -4
311 32 549 77 830 154 256 70 430 136 672 254 73 36 135 64 139 64 4 -1 10 3
13 8 12 19 143 92 154 85 5 -3 7 -1 4 4 -4 6 21 27 56 48 80 49 138 91 266
189 57 45 108 80 113 78 4 -1 7 4 6 10 -2 7 5 12 15 12 10 -1 16 1 13 4 -9 9
36 52 47 45 6 -3 7 -1 3 5 -8 13 48 55 59 44 5 -4 5 -2 2 4 -8 14 76 97 88 87
4 -5 5 -3 2 3 -7 11 20 41 38 44 6 1 9 8 7 17 -2 11 1 14 12 10 8 -3 18 -1 22
5 4 7 3 8 -4 4 -23 -14 -11 6 29 49 23 25 48 54 56 65 8 11 20 17 26 14 7 -4
9 -4 5 1 -10 11 51 87 64 79 6 -4 8 -2 5 3 -7 12 147 225 157 218 3 -3 4 -2 1
1 -6 9 36 84 45 79 4 -2 7 1 7 8 0 7 25 53 55 102 30 50 65 110 78 135 12 25
27 48 32 51 5 3 9 9 9 13 0 3 21 52 48 108 224 475 346 926 392 1457 17 197 7
610 -20 776 -63 400 -220 766 -444 1039 -31 37 -54 73 -50 80 3 6 2 8 -2 3 -5
-4 -52 35 -104 88 -53 52 -136 127 -186 166 -49 40 -89 77 -87 82 1 4 -2 6 -7
2 -14 -8 -143 79 -133 90 4 5 2 5 -5 1 -6 -3 -37 9 -67 29 -58 37 -323 170
-392 197 -35 13 -42 21 -47 49 -12 70 -30 317 -24 332 3 8 21 18 39 22 157 33
417 145 583 250 50 32 96 58 103 58 6 0 10 3 7 5 -7 8 97 82 107 76 5 -3 7 -2
6 3 -3 12 295 307 307 304 5 -1 7 1 3 4 -6 6 30 65 52 85 3 3 34 50 70 105 35
55 68 103 73 106 5 3 8 10 8 15 0 5 19 50 43 99 67 137 111 254 142 372 15 60
30 111 33 115 3 3 51 11 106 18 727 81 1557 232 2315 420 214 53 735 195 773
210 34 14 60 12 54 -3z m4618 -2233 c190 -19 375 -47 538 -81 l128 -26 -8 -76
c-13 -123 -9 -605 5 -716 30 -231 94 -529 129 -600 36 -71 94 -105 178 -105
65 0 100 16 142 64 53 60 58 91 37 235 -24 157 -27 599 -6 756 15 107 47 273
54 281 10 9 344 -131 506 -211 337 -168 529 -328 694 -579 300 -457 351 -1146
131 -1806 -81 -244 -199 -466 -320 -599 -279 -309 -884 -549 -1613 -640 -306
-39 -422 -45 -785 -45 -376 0 -568 12 -875 55 -553 77 -1064 232 -1322 402
-525 345 -857 1094 -824 1864 19 466 160 852 394 1080 61 59 241 203 254 203
3 0 8 -107 11 -237 4 -195 10 -265 31 -384 52 -294 152 -621 210 -687 37 -42
97 -71 147 -72 56 0 135 45 163 93 38 66 40 101 12 212 -66 265 -97 576 -77
804 18 223 65 419 132 553 l29 57 97 31 c153 49 384 106 548 134 169 29 285
42 285 32 0 -3 -8 -50 -17 -104 -24 -141 -24 -506 0 -662 43 -275 125 -537
242 -777 65 -134 80 -156 117 -180 36 -24 52 -28 113 -28 89 0 133 26 170 99
34 68 32 105 -14 227 -108 285 -151 516 -151 799 0 221 32 401 101 580 l31 81
116 -6 c65 -3 185 -13 267 -21z"/>
<path d="M30911 65355 c-40 -8 -97 -21 -125 -30 -28 -10 -55 -18 -61 -19 -5
-1 -53 -24 -105 -51 -52 -28 -99 -48 -105 -47 -5 2 -7 1 -3 -3 4 -4 -20 -28
-53 -52 -63 -47 -165 -156 -210 -223 -15 -22 -30 -36 -34 -32 -5 4 -5 2 -2 -4
6 -11 -26 -68 -34 -60 -3 3 -5 -3 -6 -12 0 -9 -17 -57 -38 -106 -43 -103 -94
-297 -124 -476 -81 -473 -89 -1118 -26 -1880 8 -96 17 -200 19 -230 100 -1186
470 -3078 872 -4447 25 -85 41 -159 37 -169 -4 -11 -2 -15 4 -11 6 4 19 -25
33 -71 43 -147 163 -508 231 -696 38 -103 66 -193 62 -200 -3 -6 -2 -8 2 -3
11 9 97 -201 89 -215 -4 -6 -3 -8 3 -5 10 7 120 -209 115 -227 -2 -6 0 -8 4
-4 4 4 19 -12 34 -35 63 -99 155 -150 280 -155 140 -6 226 39 330 170 21 26
41 44 45 40 5 -4 6 -2 2 3 -8 14 57 117 68 108 4 -5 5 -3 2 3 -7 12 83 194
111 227 8 9 12 17 8 17 -8 0 52 120 72 143 8 9 12 17 8 17 -8 0 33 83 46 91 5
3 8 10 7 14 -5 11 275 583 283 578 4 -2 5 4 1 13 -4 12 -3 15 6 10 6 -4 11 -4
10 1 -4 21 2 44 10 39 5 -3 8 0 8 7 -2 21 35 97 44 91 5 -3 6 3 2 12 -5 13 -3
15 7 9 8 -5 11 -4 7 2 -6 10 66 160 82 173 3 3 7 12 9 19 5 21 78 161 83 158
2 -1 3 0 2 2 -7 13 269 501 280 494 5 -3 7 -1 4 4 -9 15 64 144 76 136 6 -3 7
-2 4 4 -5 8 15 47 66 128 6 11 32 51 56 90 24 38 48 73 53 76 5 3 10 10 9 15
0 17 112 183 120 178 5 -3 6 3 2 12 -4 10 -2 15 4 11 5 -3 10 -1 10 6 0 16 96
156 104 152 3 -2 6 1 6 8 0 11 86 137 118 174 5 6 34 46 63 87 30 42 58 73 63
70 5 -3 8 -2 7 3 -5 16 24 54 37 49 9 -3 12 0 8 10 -3 9 23 48 68 102 41 48
81 98 90 112 9 14 40 50 68 80 28 30 52 57 52 60 0 3 10 16 22 30 12 14 49 57
82 95 52 62 108 125 141 159 6 6 50 56 99 111 153 173 417 445 426 439 5 -3 8
-1 7 4 -4 14 355 371 367 365 5 -4 7 -2 2 2 -9 11 82 105 102 105 8 0 12 3 9
6 -8 7 142 150 153 147 5 -2 9 2 9 8 0 6 48 57 107 113 58 55 145 138 191 183
47 45 90 79 95 76 6 -3 8 -2 4 3 -6 11 149 179 166 179 5 0 11 7 12 16 2 9 25
43 51 77 118 145 165 300 131 430 -17 66 -55 135 -100 182 -13 14 -78 72 -145
130 -101 87 -119 107 -109 120 10 13 10 13 -4 2 -13 -10 -21 -8 -43 9 -14 11
-23 25 -20 31 4 6 2 8 -4 5 -12 -8 -223 148 -214 158 4 4 2 5 -3 3 -12 -3 -57
27 -50 34 3 2 -1 5 -8 5 -19 0 -262 174 -259 185 1 5 -2 7 -8 3 -10 -6 -125
66 -148 94 -8 9 -11 10 -7 4 3 -7 -14 -1 -38 15 -25 15 -42 31 -39 36 3 5 1 6
-5 3 -13 -8 -95 47 -86 58 5 4 3 5 -4 1 -7 -3 -43 13 -80 37 -37 24 -135 83
-218 132 -82 49 -153 92 -156 98 -3 5 -8 7 -10 6 -9 -7 -107 56 -102 65 3 5 1
6 -5 2 -15 -9 -165 78 -155 89 5 4 2 5 -4 1 -7 -4 -55 16 -110 47 -54 30 -178
96 -276 146 -98 51 -183 98 -190 104 -7 7 -17 13 -22 14 -30 5 -593 291 -587
298 4 5 2 5 -4 2 -11 -6 -46 9 -264 110 -89 42 -431 194 -477 212 -18 7 -30
17 -27 22 3 5 -1 6 -9 4 -7 -3 -44 8 -82 25 -68 31 -307 126 -505 202 -58 22
-189 68 -292 103 -103 34 -184 66 -180 70 4 5 1 5 -6 1 -7 -4 -36 -1 -65 8
-156 45 -384 58 -536 31z m404 -1444 c207 -50 467 -156 691 -281 414 -232 759
-550 983 -908 310 -496 395 -1056 251 -1649 -41 -166 -72 -252 -265 -732 -91
-228 -202 -509 -246 -625 -45 -116 -91 -238 -104 -271 -27 -71 -130 -349 -156
-420 -97 -274 -133 -378 -215 -620 -164 -488 -280 -881 -386 -1308 l-62 -249
-14 39 c-385 1073 -748 2520 -977 3893 -150 897 -245 1844 -245 2448 l0 193
32 47 c153 227 328 388 476 439 82 28 133 29 237 4z"/>
<path d="M53168 58080 c-318 -34 -697 -168 -888 -315 -81 -63 -170 -162 -207
-231 -151 -283 -20 -629 293 -779 157 -75 373 -108 777 -120 666 -19 863 -44
1217 -151 323 -98 561 -197 1052 -441 428 -212 545 -262 628 -272 159 -19 200
66 125 260 -115 299 -424 727 -782 1084 -459 458 -966 770 -1463 901 -226 59
-541 86 -752 64z"/>
<path d="M42015 56779 c-188 -19 -393 -71 -572 -145 -97 -40 -279 -132 -301
-152 -20 -18 -68 -42 -76 -37 -3 3 -4 2 -1 -1 7 -10 -74 -66 -86 -59 -5 4 -8
2 -7 -2 5 -14 -111 -105 -124 -97 -6 4 -8 3 -5 -3 4 -6 -24 -37 -61 -68 -37
-32 -111 -103 -166 -159 -54 -56 -102 -100 -107 -99 -5 2 -6 -3 -4 -10 2 -6
-14 -32 -37 -57 -23 -25 -38 -39 -33 -31 5 10 4 12 -4 7 -6 -4 -9 -11 -7 -15
3 -4 -13 -30 -35 -57 -46 -55 -56 -65 -44 -45 5 10 4 12 -4 7 -6 -4 -9 -11 -6
-16 2 -4 -5 -20 -18 -36 -12 -16 -63 -90 -113 -166 -51 -75 -95 -134 -99 -130
-5 4 -5 2 -2 -5 7 -11 -57 -131 -76 -144 -5 -3 -8 -9 -8 -13 2 -10 -31 -70
-41 -77 -5 -3 -9 -9 -9 -13 3 -20 0 -26 -11 -20 -7 4 -8 3 -4 -4 4 -6 -11 -46
-32 -89 -22 -43 -67 -143 -101 -223 -34 -80 -67 -156 -73 -170 -6 -14 -12 -30
-14 -37 -8 -41 -69 -211 -80 -224 -8 -9 -11 -18 -8 -22 3 -3 -8 -61 -25 -129
-59 -238 -78 -439 -47 -512 26 -64 94 -84 172 -51 20 8 41 12 47 8 6 -3 7 -1
3 5 -4 7 -4 12 1 12 4 0 32 18 61 40 29 22 58 37 64 34 6 -4 8 -3 5 3 -3 5 15
30 41 54 54 52 89 79 79 62 -4 -6 -3 -14 2 -18 6 -3 8 3 6 14 -4 24 118 146
136 135 8 -5 9 -3 4 5 -7 13 32 48 48 43 5 -1 6 1 3 6 -8 13 247 259 441 426
62 53 107 85 114 80 7 -4 9 -3 6 3 -8 12 47 58 199 170 362 266 566 368 1109
555 416 143 595 217 729 299 28 18 57 32 64 32 6 0 10 2 8 5 -6 5 54 57 65 57
4 0 11 4 16 9 5 5 2 6 -5 1 -8 -4 7 14 32 40 25 27 48 57 52 67 3 10 10 16 15
12 5 -3 9 -2 7 3 -2 8 52 123 62 133 3 3 6 18 8 35 2 16 7 34 12 40 4 5 7 66
6 135 -2 102 -7 135 -24 178 -12 28 -18 52 -14 52 4 0 2 4 -4 8 -6 4 -24 27
-41 52 -40 58 -105 120 -170 163 -29 18 -49 38 -45 42 4 5 2 5 -4 2 -10 -6
-141 39 -154 53 -3 3 -12 6 -20 6 -8 1 -51 9 -95 18 -171 34 -414 44 -600 25z"/>
<path d="M55760 50074 c-678 -80 -1192 -305 -1604 -704 -414 -401 -655 -898
-736 -1517 -20 -146 -22 -197 -17 -417 7 -348 48 -597 148 -891 91 -267 146
-349 257 -381 116 -34 235 19 295 131 21 38 22 51 19 225 -17 953 244 1702
727 2092 257 207 557 331 991 410 178 32 478 32 628 0 308 -66 589 -207 847
-424 343 -289 698 -756 967 -1275 45 -86 94 -171 110 -188 85 -98 260 -101
354 -7 93 92 93 182 4 527 -173 669 -512 1275 -951 1700 -211 204 -415 348
-674 475 -232 114 -454 185 -710 226 -96 15 -567 28 -655 18z"/>
<path d="M42685 48130 c-596 -37 -1130 -236 -1560 -583 -108 -87 -314 -301
-403 -420 -325 -431 -515 -923 -604 -1562 -19 -138 -22 -203 -22 -480 0 -476
22 -596 122 -672 118 -90 295 -54 364 74 15 27 34 87 43 138 72 389 205 830
346 1147 159 356 373 667 594 860 338 296 731 428 1274 428 391 0 677 -83 976
-284 115 -77 355 -316 450 -448 229 -319 412 -690 576 -1167 61 -179 90 -224
168 -263 123 -63 270 -18 334 100 47 87 62 210 61 527 0 298 -6 361 -59 603
-79 357 -258 740 -483 1036 -99 129 -300 337 -423 436 -398 320 -856 496
-1384 530 -164 11 -193 10 -370 0z"/>
<path d="M51000 46474 c-19 -2 -87 -9 -150 -15 -595 -55 -1233 -215 -1608
-402 -421 -211 -610 -487 -502 -734 126 -289 1055 -668 1799 -734 l139 -13 9
-95 c12 -146 9 -514 -6 -621 -24 -175 -52 -304 -96 -435 -23 -71 -46 -142 -49
-158 -12 -52 -235 -295 -386 -421 -286 -239 -587 -348 -880 -317 -204 21 -363
81 -468 176 -184 167 -300 454 -362 895 -27 192 -26 188 -65 227 -27 27 -40
33 -76 33 -70 0 -101 -26 -139 -116 -135 -324 -146 -781 -26 -1097 37 -98 99
-212 155 -288 62 -82 188 -203 270 -259 142 -96 357 -181 563 -222 95 -19 144
-22 308 -22 210 0 305 14 483 70 369 117 755 402 1023 758 27 36 54 67 60 70
6 2 35 7 65 11 l54 6 97 -73 c284 -215 614 -358 943 -408 102 -16 363 -13 470
6 196 34 399 119 590 247 167 112 290 253 371 423 70 146 88 237 89 444 0 109
-5 201 -14 245 -20 104 -84 292 -134 397 -55 113 -177 301 -211 323 -59 39
-156 10 -183 -53 -15 -34 -14 -46 6 -156 93 -511 52 -832 -128 -998 -61 -57
-156 -116 -251 -156 -349 -147 -778 -44 -1257 300 l-83 59 0 99 c0 279 -70
652 -190 1012 -28 82 -50 150 -50 152 0 1 48 20 108 42 318 115 660 341 918
605 177 183 293 352 336 492 83 273 -138 516 -574 632 -193 51 -338 67 -648
70 -157 1 -301 1 -320 -1z m273 -229 c47 -8 111 -24 141 -35 112 -43 161 -143
98 -203 -57 -54 -233 -101 -497 -132 -111 -13 -157 -14 -226 -5 -204 24 -359
104 -359 183 0 90 105 158 300 192 108 19 436 19 543 0z"/>
<path d="M43690 14782 c0 -3 21 -37 48 -76 127 -189 305 -324 482 -367 131
-31 302 -8 435 58 91 46 314 217 301 231 -3 2 -49 -4 -103 -13 -128 -23 -348
-26 -496 -9 -145 18 -382 77 -544 136 -68 25 -123 43 -123 40z"/>
<path d="M56666 16653 c-12 -75 -6 -404 9 -512 94 -640 469 -1025 949 -971
414 47 827 406 1097 955 71 145 133 295 124 303 -2 2 -38 -14 -82 -36 -339
-174 -685 -219 -1068 -140 -256 52 -573 182 -893 367 -67 39 -124 71 -126 71
-2 0 -6 -17 -10 -37z"/>
<path d="M19260 60069 c-1142 -99 -2165 -522 -3010 -1245 -131 -112 -411 -388
-521 -514 -619 -707 -1022 -1516 -1213 -2435 -117 -564 -133 -1206 -45 -1805
79 -539 250 -1084 495 -1573 193 -386 402 -704 683 -1037 124 -148 445 -472
586 -591 846 -717 1807 -1130 2900 -1245 210 -23 769 -26 970 -6 792 79 1490
296 2138 666 l99 56 1086 -221 c1192 -243 1154 -237 1263 -187 71 33 144 105
177 176 22 47 26 72 27 142 0 84 -3 94 -317 1087 l-317 1002 73 143 c632 1249
735 2703 287 4036 -267 793 -695 1472 -1301 2065 -781 764 -1726 1246 -2807
1432 -256 44 -422 56 -788 60 -198 2 -407 -1 -465 -6z m843 -724 c1212 -117
2329 -728 3104 -1697 311 -389 578 -885 743 -1378 38 -116 120 -412 120 -435
0 -5 -18 28 -39 75 -381 847 -997 1569 -1778 2083 -693 457 -1481 723 -2333
788 -197 15 -707 6 -880 -15 -654 -81 -1202 -251 -1753 -543 -220 -117 -471
-276 -637 -404 -41 -32 -100 -77 -130 -100 -328 -252 -747 -708 -994 -1079
-31 -47 -56 -82 -56 -78 0 19 156 341 223 461 222 398 458 710 776 1027 788
786 1804 1239 2936 1310 169 11 505 4 698 -15z m-1147 -2871 c216 -45 409
-147 599 -319 l80 -72 75 69 c372 347 873 441 1274 242 137 -69 255 -170 356
-305 261 -350 279 -855 42 -1224 -64 -98 -183 -222 -864 -901 -797 -795 -755
-759 -883 -759 -128 0 -85 -38 -898 774 -428 426 -764 770 -799 816 -78 102
-151 252 -185 380 -25 91 -27 116 -27 275 0 156 3 185 26 270 69 255 226 478
434 616 126 84 257 131 439 158 55 8 252 -4 331 -20z"/>
</g>
</svg>
