<?xml version="1.0" standalone="no"?>
<!DOCTYPE svg PUBLIC "-//W3C//DTD SVG 20010904//EN"
 "http://www.w3.org/TR/2001/REC-SVG-20010904/DTD/svg10.dtd">
<svg version="1.0" xmlns="http://www.w3.org/2000/svg"
 width="826.000000pt" height="826.000000pt" viewBox="0 0 826.000000 826.000000"
 preserveAspectRatio="xMidYMid meet">

<g transform="translate(0.000000,826.000000) scale(0.100000,-0.100000)"
fill="#000000" stroke="none">
<path d="M3160 6883 c-14 -3 -76 -27 -138 -54 -62 -27 -157 -60 -211 -73 -228
-57 -330 -150 -362 -331 -15 -86 -7 -258 21 -480 21 -166 20 -218 -7 -314 -19
-66 -12 -112 22 -157 33 -44 73 -64 126 -64 40 0 41 -1 34 -27 -20 -81 -27
-88 -109 -105 -178 -39 -312 -143 -386 -300 -78 -168 -123 -420 -123 -693 0
-192 16 -306 64 -450 134 -403 478 -650 937 -672 67 -3 122 -8 122 -11 0 -7
-101 -296 -104 -300 -2 -2 -34 -10 -70 -17 -104 -22 -194 -75 -280 -165 -185
-194 -255 -501 -186 -820 80 -372 341 -660 676 -745 52 -13 131 -23 318 -42
70 -7 181 22 243 63 47 33 56 35 100 28 26 -3 101 -22 165 -40 236 -67 339
-67 452 1 30 18 74 36 97 40 35 6 46 3 82 -23 92 -64 200 -79 407 -54 137 17
237 44 333 92 263 132 451 393 511 710 21 106 21 308 1 405 -32 152 -97 285
-188 382 -46 49 -48 53 -34 75 25 39 47 128 54 218 21 294 -174 602 -519 820
-48 30 -87 57 -88 60 0 3 30 16 68 29 275 98 505 270 602 452 106 199 134 443
84 746 l-6 41 36 -8 c67 -15 135 13 180 73 17 23 20 43 21 150 1 121 2 124 63
317 77 240 107 388 98 480 -8 72 -38 148 -80 197 -35 41 -142 111 -226 148
-36 15 -95 49 -132 74 -173 118 -207 132 -313 132 -75 0 -132 -15 -171 -46
l-27 -22 -66 36 c-276 151 -614 237 -973 248 -289 8 -506 -16 -712 -82 l-83
-26 -34 32 c-19 17 -54 40 -78 51 -44 19 -165 31 -211 21z m161 -74 c21 -7 53
-24 71 -40 26 -22 31 -30 21 -40 -10 -10 -20 -9 -50 5 -52 25 -140 36 -198 25
-26 -5 -91 -29 -144 -53 -54 -25 -135 -54 -182 -66 -109 -27 -201 -65 -256
-107 -54 -41 -55 -30 -2 30 50 58 135 100 261 132 53 13 148 46 210 74 122 54
187 64 269 40z m1225 -18 c139 -24 317 -68 424 -107 160 -57 315 -139 327
-172 4 -9 33 -62 67 -117 116 -194 164 -349 206 -675 33 -256 81 -398 171
-510 36 -44 47 -68 57 -120 47 -245 41 -433 -19 -613 -103 -310 -403 -512
-954 -643 -175 -42 -199 -50 -189 -65 9 -16 137 -5 275 22 l107 21 43 -23
c213 -108 430 -311 524 -490 98 -186 100 -427 5 -556 -42 -56 -131 -114 -210
-135 -69 -18 -215 -24 -224 -9 -3 4 17 28 46 51 57 49 108 122 108 157 0 13
-3 23 -6 23 -3 0 -37 -29 -76 -65 -86 -79 -168 -122 -206 -109 -15 5 -37 24
-49 43 -29 43 -30 123 -3 201 18 53 18 70 0 70 -13 0 -41 -56 -56 -115 -18
-67 -17 -134 2 -180 l15 -38 -50 5 c-27 3 -76 18 -108 34 -47 23 -62 38 -80
74 -29 56 -31 154 -4 239 18 58 18 71 -1 71 -14 0 -55 -97 -69 -164 -14 -65
-21 -58 -34 31 -7 54 18 171 51 236 48 94 156 196 254 240 59 26 191 28 271 4
68 -21 161 -76 209 -123 41 -39 60 -43 60 -14 0 30 -106 130 -177 168 -65 34
-170 62 -238 62 -62 0 -146 -25 -211 -64 -65 -37 -89 -58 -150 -128 l-41 -47
-64 20 c-112 36 -232 59 -306 59 -100 0 -168 -27 -244 -97 -55 -51 -68 -73
-174 -287 -119 -241 -202 -430 -275 -627 l-44 -117 -72 -4 c-90 -6 -199 -55
-262 -118 -80 -82 -119 -207 -109 -353 6 -89 36 -195 52 -187 6 3 9 50 6 120
-7 241 44 356 194 433 52 26 71 30 140 31 97 0 151 -21 223 -88 91 -86 149
-250 159 -456 5 -97 2 -128 -16 -199 -11 -46 -32 -103 -46 -127 -50 -85 -142
-129 -270 -129 -68 0 -89 4 -138 28 -32 16 -71 40 -87 54 -18 15 -37 23 -46
19 -14 -5 -13 -11 6 -41 l22 -36 -28 7 c-234 55 -437 212 -557 432 -200 368
-159 810 97 1049 91 86 231 144 307 129 76 -15 200 -138 267 -264 42 -80 56
-95 65 -69 6 17 -38 141 -67 191 -39 67 -103 133 -167 172 -32 20 -59 41 -59
47 0 12 89 302 135 436 23 70 32 108 25 115 -15 15 -26 -1 -64 -90 l-33 -79
-84 -3 c-158 -7 -354 35 -492 104 -193 98 -317 225 -411 425 -52 110 -80 214
-97 359 -30 260 26 662 116 840 37 72 123 161 193 198 156 83 361 90 509 17
90 -44 137 -97 163 -183 34 -110 19 -241 -34 -291 l-23 -22 -6 83 c-5 88 -18
142 -40 172 -25 34 -36 10 -21 -41 19 -62 18 -167 -2 -208 -24 -51 -55 -66
-157 -75 -50 -5 -93 -7 -95 -5 -2 2 2 20 8 41 28 85 -17 306 -57 281 -7 -5 -6
-23 4 -58 10 -32 14 -78 11 -125 -3 -64 -7 -77 -30 -101 -72 -71 -259 12 -328
147 -20 39 -50 54 -50 25 0 -27 38 -116 65 -151 34 -44 86 -77 167 -106 55
-19 84 -22 221 -23 l157 0 0 -50 c0 -125 85 -412 130 -440 23 -14 31 11 15 54
l-15 43 23 -14 c138 -90 343 -185 524 -244 105 -34 143 -38 143 -16 0 5 -51
31 -112 57 -167 71 -390 186 -504 260 l-101 65 -12 73 c-6 39 -14 108 -17 152
l-6 80 66 29 c125 54 172 143 164 310 -6 114 -33 187 -94 255 -56 62 -162 117
-254 132 -36 6 -79 14 -97 17 l-32 7 30 70 c24 56 40 78 80 108 108 82 184
217 271 482 95 288 191 468 330 621 35 38 71 81 80 95 12 19 37 32 104 52 149
45 226 59 449 81 94 10 395 -4 511 -23z m1099 -218 c29 -15 91 -53 137 -84 45
-31 112 -69 148 -85 73 -31 164 -90 196 -125 33 -36 64 -92 64 -114 0 -16 -4
-14 -19 12 -31 50 -116 111 -236 168 -60 29 -148 81 -194 114 -47 34 -107 68
-135 76 -59 18 -140 19 -186 4 -26 -9 -34 -9 -41 2 -21 34 68 71 154 65 39 -3
77 -14 112 -33z m-1305 -3308 c77 -15 217 -52 232 -61 5 -3 3 -16 -5 -27 -12
-19 -32 -97 -68 -257 -6 -25 -14 -49 -19 -54 -4 -4 -31 -1 -60 9 -28 9 -54 15
-57 12 -13 -14 11 -46 47 -62 42 -19 48 -31 28 -58 -12 -16 -23 -14 -143 22
-71 22 -143 44 -158 50 -27 10 -28 10 -25 -16 4 -38 42 -60 138 -81 l85 -18
-3 -44 c-2 -24 -4 -45 -5 -47 -2 -1 -42 10 -90 24 -48 14 -90 23 -94 19 -4 -3
2 -19 14 -34 16 -22 35 -30 98 -44 42 -9 82 -21 87 -26 10 -10 2 -68 -11 -76
-5 -4 -70 12 -163 41 -22 7 -22 0 -3 -37 9 -16 25 -32 38 -34 119 -25 112 -12
68 -134 -34 -92 -37 -112 -18 -112 22 0 55 42 92 118 19 40 39 72 45 72 6 0
42 -16 81 -35 74 -38 89 -38 89 -1 0 42 -36 74 -95 86 -30 6 -55 17 -55 23 1
15 35 57 46 57 5 0 48 -19 96 -41 96 -46 125 -47 113 -1 -11 43 -34 61 -96 74
-33 7 -59 14 -59 18 0 3 18 15 41 27 l40 22 85 -44 c92 -48 109 -53 121 -31 6
12 18 12 61 5 55 -10 148 -7 190 6 21 7 23 5 16 -21 -4 -16 -31 -99 -59 -184
l-52 -155 -50 -7 c-100 -15 -163 -46 -234 -117 -36 -36 -75 -87 -87 -113 -39
-83 -73 -219 -85 -336 -9 -95 -9 -128 5 -215 9 -56 19 -114 23 -129 6 -22 0
-34 -33 -70 -106 -115 -222 -122 -507 -32 -140 44 -143 46 -123 76 17 26 35
111 46 212 l7 69 105 -102 c118 -114 143 -125 252 -119 104 6 101 18 -15 67
-142 62 -193 92 -281 167 -68 57 -76 68 -76 99 0 34 1 34 18 17 10 -10 45 -24
78 -31 87 -17 88 -19 70 -79 -10 -34 -11 -54 -5 -58 13 -7 66 42 75 68 8 25
36 22 124 -12 88 -35 110 -37 110 -11 0 38 -32 55 -145 79 -25 5 -41 14 -43
25 -5 25 27 33 60 14 17 -9 37 -17 46 -17 16 0 122 104 122 120 0 20 -69 80
-91 80 -32 0 -53 15 -44 30 5 8 21 10 45 6 26 -4 40 -2 43 7 7 20 -12 47 -33
47 -21 0 -27 15 -10 25 6 4 8 15 5 26 -4 10 -4 19 -2 19 4 0 63 -20 106 -35
11 -4 7 -13 -13 -34 l-28 -29 71 -13 c39 -7 74 -9 78 -6 11 11 -28 86 -54 103
-14 8 -77 29 -141 46 -142 36 -182 52 -182 72 0 26 -23 18 -68 -25 -30 -28
-42 -48 -40 -62 4 -32 36 -33 68 -2 24 23 34 26 65 21 40 -8 50 -23 41 -62 -6
-21 -11 -25 -29 -20 -66 18 -67 18 -67 2 0 -9 15 -26 34 -37 23 -13 33 -25 29
-35 -7 -20 -54 -10 -110 22 -23 13 -45 24 -48 24 -4 0 -4 -16 -1 -35 4 -19 2
-62 -4 -95 -13 -71 -3 -100 32 -93 13 2 31 -2 41 -9 15 -11 16 -16 5 -31 -13
-17 -18 -16 -114 10 l-101 28 -12 58 c-14 68 -4 88 55 107 42 14 44 40 7 75
-19 17 -35 24 -48 20 -68 -19 -73 -18 -90 15 -33 65 -159 180 -197 180 -39 1
-38 16 8 135 104 271 307 710 382 826 37 58 88 97 155 120 64 22 91 23 187 4z
m234 -515 c30 -45 21 -51 -40 -25 -35 14 -36 20 -11 53 15 19 22 15 51 -28z
m-125 -61 c47 -14 51 -27 19 -63 -19 -20 -29 -23 -56 -19 -26 4 -32 9 -26 22
9 21 9 42 -1 65 -7 15 -5 18 7 13 9 -3 34 -11 57 -18z m1311 -221 c64 -131 83
-218 83 -383 1 -115 -3 -156 -22 -229 -52 -200 -124 -332 -255 -461 -112 -111
-240 -188 -363 -219 -13 -3 -33 -9 -44 -12 l-22 -6 22 31 c21 29 21 51 0 51
-5 0 -29 -15 -53 -34 -67 -51 -129 -71 -216 -71 -181 1 -276 86 -316 281 -21
102 -14 244 20 375 42 168 108 264 215 316 47 24 68 28 136 27 94 0 167 -29
232 -92 80 -78 108 -181 100 -370 -3 -67 -1 -124 3 -127 15 -9 30 22 45 94 54
256 -38 467 -237 542 -32 12 -58 27 -58 33 0 6 22 78 50 161 l50 150 91 -4
c145 -5 304 44 371 116 l23 25 52 -56 c30 -32 69 -91 93 -138z m-1592 -612
c11 -11 -13 -27 -34 -23 -33 6 -39 -8 -14 -33 24 -24 19 -56 -6 -46 -9 3 -20
6 -26 6 -6 0 -8 14 -4 38 13 72 15 75 49 68 17 -3 32 -8 35 -10z m151 -42 c3
-3 -5 -25 -19 -50 -22 -42 -26 -45 -54 -40 -36 7 -40 11 -31 26 4 7 18 10 32
7 33 -6 43 21 15 43 -12 10 -18 21 -14 25 7 7 61 -1 71 -11z"/>
<path d="M3551 6276 c-80 -31 -142 -73 -159 -109 -19 -38 4 -72 59 -88 79 -24
292 23 346 77 29 29 31 82 4 115 -17 21 -29 24 -103 26 -68 2 -95 -2 -147 -21z"/>
<path d="M4922 6175 c-36 -16 -56 -56 -47 -94 15 -60 153 -139 285 -163 152
-29 175 77 40 176 -100 74 -217 108 -278 81z"/>
<path d="M3600 5934 c-30 -8 -96 -34 -147 -59 -153 -75 -238 -186 -264 -346
-17 -104 38 -236 131 -310 l40 -33 -39 -40 c-109 -112 -137 -285 -76 -467 91
-267 348 -455 739 -541 88 -20 130 -23 326 -22 202 0 234 2 313 23 191 50 314
116 428 230 181 183 229 431 115 600 l-34 50 58 35 c117 72 170 163 170 292 0
44 -7 103 -15 132 -22 72 -90 168 -160 225 -111 90 -277 156 -358 140 -144
-27 -226 -166 -258 -436 -7 -56 -13 -103 -14 -105 -1 -1 -28 7 -60 18 -111 38
-220 53 -360 47 -71 -2 -136 -6 -144 -8 -12 -3 -14 6 -10 46 8 99 3 271 -10
325 -46 186 -173 256 -371 204z m219 -280 c58 -73 -10 -229 -85 -195 -29 13
-49 76 -40 125 9 46 51 96 81 96 14 0 32 -11 44 -26z m1020 -86 c41 -43 36
-143 -10 -189 -39 -39 -92 -11 -105 55 -20 108 57 197 115 134z m-414 -277
c93 -24 284 -116 335 -162 l35 -31 -35 21 c-178 109 -381 163 -610 164 -150 0
-269 -18 -374 -58 -36 -14 -66 -23 -66 -20 0 16 158 74 271 100 94 21 338 14
444 -14z m-62 -142 c68 -31 -23 -66 -130 -51 -87 12 -131 35 -111 59 11 13 29
15 113 10 56 -3 113 -11 128 -18z m-193 -660 c3 -60 9 -110 14 -112 10 -2 24
46 46 158 l12 60 17 -25 c9 -14 37 -48 63 -76 27 -28 48 -56 48 -63 0 -7 -10
-34 -21 -62 -19 -43 -27 -50 -63 -61 -61 -17 -153 -11 -204 14 -49 23 -72 63
-72 121 0 29 8 40 60 80 33 26 65 56 72 66 7 11 15 18 18 15 3 -3 7 -55 10
-115z"/>
<path d="M3893 2130 c7 -62 12 -70 41 -70 54 0 60 46 11 89 -50 44 -59 41 -52
-19z"/>
<path d="M1643 6506 c-182 -59 -291 -235 -261 -421 13 -84 39 -137 98 -199
101 -107 253 -143 400 -96 68 22 71 22 144 5 42 -9 80 -14 86 -10 15 9 12 35
-10 108 l-20 64 22 49 c18 39 22 68 23 139 0 80 -3 97 -31 155 -63 133 -182
211 -329 217 -49 2 -96 -2 -122 -11z m256 -81 c68 -37 125 -102 152 -174 27
-72 23 -174 -11 -242 -21 -44 -22 -48 -7 -97 8 -28 13 -53 10 -55 -2 -3 -29 2
-58 9 -52 14 -57 13 -97 -7 -54 -28 -161 -36 -224 -19 -25 7 -72 32 -103 55
-44 32 -64 56 -91 110 -30 59 -35 79 -35 140 0 129 80 248 199 295 77 30 193
24 265 -15z"/>
<path d="M1640 6240 c-12 -12 -20 -33 -20 -53 0 -27 11 -44 65 -97 l65 -64 65
64 c54 53 65 70 65 97 0 61 -58 92 -108 57 -20 -14 -24 -14 -44 0 -31 22 -64
20 -88 -4z"/>
</g>
</svg>
