<?xml version="1.0" standalone="no"?>
<!DOCTYPE svg PUBLIC "-//W3C//DTD SVG 20010904//EN"
 "http://www.w3.org/TR/2001/REC-SVG-20010904/DTD/svg10.dtd">
<svg version="1.0" xmlns="http://www.w3.org/2000/svg"
 width="4000.000000pt" height="4000.000000pt" viewBox="0 0 4000.000000 4000.000000"
 preserveAspectRatio="xMidYMid meet">
<metadata>
Created by potrace 1.16, written by Peter Selinger 2001-2019
</metadata>
<g transform="translate(0.000000,4000.000000) scale(0.100000,-0.100000)"
fill="#000000" stroke="none">
<path d="M29545 34064 c-52 -19 -111 -77 -130 -128 -8 -23 -193 -1213 -410
-2646 -349 -2297 -655 -4308 -760 -5003 -19 -125 -35 -230 -35 -232 0 -8 -228
-76 -385 -115 -321 -79 -598 -117 -930 -127 -174 -5 -212 -4 -221 8 -6 8 -26
59 -44 114 -89 272 -245 646 -398 950 -734 1469 -1935 2660 -3422 3394 -953
471 -1943 735 -3080 823 -215 16 -970 16 -1195 0 -440 -33 -827 -83 -1201
-157 -1815 -356 -3357 -1224 -4466 -2515 -972 -1131 -1567 -2564 -1727 -4160
-34 -340 -44 -536 -44 -885 1 -604 52 -1172 173 -1901 130 -788 296 -1516 682
-2989 495 -1896 639 -2617 679 -3407 22 -426 -19 -670 -160 -964 -229 -476
-659 -814 -1176 -924 -129 -27 -414 -38 -576 -21 -709 73 -1169 412 -1523
1121 -168 337 -277 647 -508 1435 -207 710 -306 1013 -431 1325 -502 1249
-1246 1895 -2383 2070 -852 131 -1709 -95 -2364 -623 -141 -114 -384 -365
-453 -469 -99 -149 -140 -280 -140 -448 -1 -219 73 -407 221 -563 134 -141
297 -223 493 -248 74 -10 110 -9 231 7 206 27 499 25 625 -4 500 -115 750
-498 942 -1442 40 -197 91 -496 176 -1025 189 -1181 379 -1886 691 -2559 613
-1327 1673 -2257 3204 -2811 1389 -502 2751 -587 3995 -246 996 272 1891 798
2689 1581 273 268 494 519 705 800 53 70 100 128 104 129 4 1 54 -90 111 -201
255 -504 530 -885 903 -1248 613 -599 1324 -946 2174 -1062 144 -20 208 -23
529 -23 390 0 483 7 805 61 493 82 997 236 1401 429 l131 62 54 -45 c249 -207
560 -404 893 -568 1108 -545 2420 -631 3606 -234 221 74 396 147 630 265 742
375 1370 946 1812 1649 l93 147 110 47 c170 72 502 239 689 346 300 173 587
372 857 597 161 134 527 500 659 659 909 1094 1389 2482 1515 4380 27 407 36
730 45 1638 9 844 15 1017 40 1237 13 111 47 277 64 320 8 18 99 146 203 286
104 140 226 305 272 367 48 65 90 112 99 112 9 0 539 -61 1177 -136 638 -74
1192 -138 1232 -141 65 -5 78 -3 128 22 67 32 108 83 125 155 13 55 8 95 -22
157 -16 34 -54 69 -181 170 -182 143 -1801 1415 -1805 1418 -1 1 61 559 138
1241 159 1401 154 1299 72 1386 -75 81 -182 98 -277 45 -32 -18 -129 -140
-495 -629 -250 -334 -460 -612 -465 -617 -7 -7 -42 6 -106 39 -367 189 -819
218 -1248 80 -116 -38 -349 -150 -448 -217 -162 -109 -351 -282 -479 -437
l-41 -50 -269 37 c-148 21 -288 37 -312 37 -147 -1 -255 -155 -208 -297 22
-65 41 -84 254 -252 100 -80 181 -147 180 -151 -2 -3 -18 -42 -36 -87 l-33
-80 -39 19 c-58 29 -106 32 -211 13 -125 -22 -461 -31 -610 -16 -160 17 -334
53 -473 100 -124 42 -341 145 -388 183 l-27 23 179 1019 c99 561 183 1023 187
1026 17 15 274 170 388 235 172 98 529 272 685 334 375 150 723 240 1048 272
152 15 468 6 592 -16 142 -26 254 -61 360 -113 82 -41 102 -47 155 -46 102 0
192 67 216 159 24 92 120 368 164 469 258 601 600 1050 1000 1312 94 61 107
74 134 134 26 56 26 132 2 185 -64 142 -531 418 -944 559 -975 332 -2063 183
-3131 -428 -82 -47 -151 -85 -152 -83 -1 1 16 101 37 222 77 433 108 623 133
815 266 2003 170 3181 -350 4314 -156 338 -417 774 -673 1119 -61 83 -81 102
-124 123 -59 27 -122 30 -182 8z m332 -1010 c663 -1135 813 -2241 572 -4239
-47 -394 -57 -455 -443 -2655 -202 -1147 -559 -3182 -794 -4522 -235 -1341
-431 -2441 -435 -2445 -8 -7 -1097 156 -1109 166 -4 4 -1 49 7 101 8 52 78
511 155 1020 77 509 174 1148 216 1420 41 272 111 731 155 1020 44 289 100
658 125 820 69 456 87 574 178 1175 73 476 149 978 261 1715 21 137 127 847
156 1035 5 39 32 212 59 385 27 173 63 407 79 520 17 113 73 484 125 825 135
880 363 2383 522 3438 33 214 63 386 68 384 5 -2 52 -75 103 -163z m-10382
-2404 c713 -33 1347 -142 2003 -344 1142 -353 2160 -964 2992 -1796 568 -567
982 -1143 1344 -1870 99 -200 266 -580 266 -608 0 -6 -8 -12 -17 -14 -14 -3
-34 28 -89 137 -602 1187 -1569 2223 -2734 2928 -1075 651 -2275 1020 -3595
1107 -170 12 -867 16 -980 6 -33 -3 -107 -8 -165 -11 -181 -10 -507 -44 -722
-75 -1954 -284 -3633 -1181 -4790 -2560 -353 -420 -634 -850 -890 -1359 -76
-151 -138 -271 -138 -267 0 4 23 69 51 144 375 1003 970 1896 1734 2605 890
825 1958 1399 3200 1717 795 204 1703 297 2530 260z m13690 -2970 c350 -32
672 -123 984 -278 l154 -76 -89 -83 c-49 -45 -93 -82 -97 -83 -5 0 -70 23
-144 51 -1032 384 -2207 179 -3346 -584 -49 -32 -91 -56 -94 -54 -3 3 4 59 16
124 12 65 21 121 21 124 0 4 66 51 148 106 623 421 1271 681 1852 742 58 6
119 13 135 15 70 8 359 5 460 -4z m-6895 -2203 l31 -107 -27 -36 c-38 -49
-131 -119 -208 -155 -157 -74 -1333 -339 -2076 -469 -1096 -192 -1991 -297
-3280 -385 -76 -5 -372 -20 -575 -30 -567 -27 -1848 -38 -2400 -21 -309 9
-738 25 -840 31 -44 2 -123 7 -175 10 -1195 64 -2319 174 -3480 341 -503 72
-1178 184 -1270 210 -68 19 -161 71 -219 121 l-43 38 22 108 c21 98 25 106 44
102 438 -99 1130 -229 1701 -319 2647 -418 5346 -520 7830 -295 1675 151 3207
440 4650 878 127 38 241 74 255 79 14 5 26 9 27 8 1 -1 16 -50 33 -109z m1836
36 c-2 -10 -12 -73 -22 -140 -20 -143 7 -121 -219 -177 -147 -37 -359 -78
-485 -96 -109 -16 -395 -40 -466 -40 l-62 0 -7 38 c-3 20 -17 82 -31 136 -13
55 -22 101 -20 103 2 3 94 9 203 14 110 5 271 18 359 29 175 22 501 86 634
124 106 30 123 32 116 9z m6930 -1840 c-3 -27 -31 -271 -61 -543 -30 -272 -58
-511 -61 -530 -7 -34 -7 -34 -20 25 -39 166 -113 341 -200 472 l-56 83 168
228 c92 125 181 246 198 269 17 23 33 42 35 43 2 0 1 -21 -3 -47z m-7824 -673
c97 -167 266 -506 343 -687 l49 -113 -209 -1375 c-115 -757 -213 -1381 -217
-1388 -5 -8 -55 -4 -190 17 -100 15 -184 29 -186 31 -2 2 13 124 32 272 131
984 190 1854 203 2961 l6 563 40 -63 c22 -35 80 -133 129 -218z m6486 224
c325 -58 585 -268 703 -565 l20 -53 -81 78 c-212 202 -478 310 -800 323 -263
10 -495 -39 -729 -156 l-82 -41 -96 14 c-52 8 -97 17 -99 19 -8 7 177 151 256
200 284 174 598 237 908 181z m-1018 -874 l425 -60 50 -53 c98 -105 154 -233
181 -411 32 -213 62 -301 129 -375 21 -22 35 -41 31 -41 -5 0 -315 244 -1156
908 -121 96 -117 92 -99 92 7 0 205 -27 439 -60z m-19435 -9 c330 -55 755
-117 1025 -151 47 -6 102 -13 123 -16 l38 -6 -45 -28 c-123 -78 -138 -259 -29
-362 26 -25 63 -44 206 -107 l49 -21 -61 -67 c-198 -215 -311 -519 -311 -837
0 -349 119 -658 340 -879 49 -48 81 -86 72 -83 -10 3 -66 15 -127 26 -108 22
-241 51 -480 105 -66 15 -132 33 -146 41 -44 22 -204 188 -278 287 -125 167
-218 355 -270 547 -18 64 -98 451 -285 1377 -42 207 -43 213 -22 208 12 -3
102 -18 201 -34z m1602 -221 c1235 -143 2745 -221 4003 -206 487 5 1007 19
1150 31 59 4 63 4 40 -9 -14 -8 -290 -130 -615 -271 -324 -142 -606 -271 -626
-286 -102 -80 -106 -253 -8 -346 68 -65 164 -79 262 -39 37 16 57 20 54 12
-16 -42 -29 -224 -24 -335 16 -333 145 -627 364 -832 113 -105 240 -175 381
-208 l76 -18 -54 -6 c-30 -3 -125 -15 -210 -26 -863 -112 -1918 -140 -2865
-75 -389 26 -1126 105 -1324 141 l-34 6 57 23 c126 51 269 167 366 296 184
244 276 588 240 904 -7 60 -16 117 -21 127 -12 21 -16 22 56 -8 73 -30 135
-31 195 -4 60 27 88 54 116 114 54 114 7 247 -106 305 -31 16 -440 196 -670
295 -243 105 -957 418 -970 426 -20 11 -24 12 167 -11z m6788 -104 c129 -35
291 -131 376 -223 85 -92 157 -223 195 -353 25 -88 26 -297 1 -390 -38 -140
-183 -395 -324 -570 -83 -103 -255 -266 -366 -349 -284 -210 -559 -327 -952
-402 -88 -17 -171 -33 -185 -36 -14 -3 10 18 55 47 376 245 567 768 465 1270
-25 124 -59 219 -118 335 -51 98 -142 225 -196 273 l-35 31 112 48 c137 59
188 104 212 187 10 33 14 69 10 86 -6 29 -5 30 32 31 21 0 126 9 233 19 221
21 396 19 485 -4z m14112 -861 c347 -272 554 -441 544 -443 -10 -2 -130 11
-267 27 -137 17 -528 63 -868 102 -672 79 -667 78 -739 27 -17 -12 -95 -110
-175 -217 -80 -108 -289 -389 -465 -626 -176 -236 -324 -434 -329 -440 -7 -7
-8 4 -4 30 18 116 146 1623 140 1649 -8 40 -31 85 -58 115 -19 23 -18 22 16
-3 47 -35 121 -63 189 -72 35 -5 73 -20 113 -45 94 -58 174 -82 297 -87 165
-7 303 39 434 145 121 98 236 277 285 444 l22 76 152 -121 c84 -66 405 -319
713 -561z m-20106 49 c124 -55 124 -55 155 -115 123 -244 -70 -544 -307 -476
-205 60 -278 370 -127 542 40 45 123 95 159 95 9 0 63 -21 120 -46z m4025 20
c19 -9 55 -39 79 -66 152 -170 86 -476 -118 -544 -130 -43 -272 37 -328 185
-28 75 -24 215 9 277 19 38 30 45 159 102 76 33 144 61 151 61 8 1 29 -6 48
-15z m11448 -789 c-36 -214 -90 -561 -179 -1165 -31 -206 -59 -382 -63 -391
-6 -14 -104 -1 -827 109 -451 69 -822 126 -824 128 -2 2 16 110 39 241 22 131
68 391 101 578 32 187 61 350 64 362 5 21 9 20 128 -36 178 -84 406 -175 608
-241 196 -65 483 -140 533 -140 58 0 123 29 164 74 40 44 52 70 223 517 35 92
65 166 66 165 1 -1 -14 -91 -33 -201z m-25334 -1759 c864 -137 1442 -573 1856
-1399 187 -371 312 -724 565 -1592 158 -538 248 -827 320 -1024 27 -74 48
-135 47 -137 -8 -8 -333 -43 -338 -37 -9 10 -33 90 -180 593 -227 777 -331
1087 -482 1430 -327 744 -743 1217 -1320 1500 -358 176 -738 266 -1174 277
-243 6 -376 -3 -594 -43 -326 -60 -651 -181 -912 -340 -81 -49 -87 -51 -69
-25 11 15 70 76 131 134 373 358 856 592 1363 661 62 9 123 18 137 20 65 11
550 -2 650 -18z m21570 -861 c277 -33 644 -115 847 -191 129 -47 285 -129 384
-200 105 -76 261 -238 332 -345 145 -219 238 -503 266 -819 12 -127 15 -340 5
-340 -4 0 -21 9 -38 20 -25 15 -35 31 -45 72 -21 85 -80 235 -131 338 -198
395 -543 686 -991 834 -137 45 -441 120 -594 146 -602 103 -1196 68 -1630 -95
-485 -183 -1104 -584 -1762 -1142 -73 -62 -136 -113 -139 -113 -3 0 32 44 77
98 399 468 757 821 1094 1076 543 413 1114 634 1755 680 106 7 436 -4 570 -19z
m1890 -81 c1027 -155 1332 -202 1336 -206 2 -3 -16 -63 -39 -134 -158 -469
-371 -832 -638 -1089 -83 -79 -224 -195 -239 -195 -3 0 -11 66 -18 148 -39
489 -189 888 -459 1222 -60 74 -171 185 -268 268 l-50 43 35 -5 c19 -3 172
-26 340 -52z m-15975 -2462 c511 -208 1157 -381 1885 -502 255 -43 594 -90
643 -90 17 0 28 -3 25 -6 -13 -12 -668 28 -1018 61 -633 62 -1259 171 -1662
289 -66 20 -63 10 -73 215 -5 106 -4 113 12 108 10 -3 95 -37 188 -75z m4542
-233 c35 -6 70 -18 78 -26 8 -8 20 -11 26 -7 8 5 9 3 4 -6 -6 -10 -4 -12 11
-6 14 5 16 4 7 -4 -8 -9 -16 -9 -30 -2 -13 8 -22 7 -35 -5 -22 -20 -24 -10 -2
11 28 28 -1 17 -32 -12 -16 -16 -64 -41 -107 -56 -204 -74 -383 -247 -489
-473 -40 -85 -87 -249 -89 -307 0 -17 -4 -40 -8 -50 -15 -39 -34 128 -29 256
4 104 10 138 37 218 73 216 212 374 389 440 100 38 171 46 269 29z m-8971
-1091 c273 -493 595 -816 1009 -1014 327 -157 652 -224 1086 -224 373 0 658
67 977 230 72 37 132 64 132 58 0 -18 -247 -256 -332 -319 -386 -287 -833
-415 -1323 -380 -813 60 -1342 408 -1742 1146 -78 144 -112 216 -194 415 -60
146 -66 166 -51 172 9 5 82 14 162 22 231 22 197 35 276 -106z"/>
</g>
</svg>
