<?xml version="1.0" standalone="no"?>
<!DOCTYPE svg PUBLIC "-//W3C//DTD SVG 20010904//EN"
 "http://www.w3.org/TR/2001/REC-SVG-20010904/DTD/svg10.dtd">
<svg version="1.0" xmlns="http://www.w3.org/2000/svg"
 width="4000.000000pt" height="4000.000000pt" viewBox="0 0 4000.000000 4000.000000"
 preserveAspectRatio="xMidYMid meet">
<metadata>
Created by potrace 1.16, written by Peter Selinger 2001-2019
</metadata>
<g transform="translate(0.000000,4000.000000) scale(0.100000,-0.100000)"
fill="#000000" stroke="none">
<path d="M14105 29419 c-647 -83 -1175 -578 -1304 -1220 -106 -531 -237 -1533
-286 -2194 -3 -38 -8 -95 -10 -125 -15 -159 -36 -645 -45 -1011 -16 -634 4
-1326 58 -1949 l17 -195 -63 -160 c-196 -493 -400 -1208 -501 -1750 -105 -564
-145 -985 -144 -1515 0 -479 35 -836 119 -1229 335 -1561 1326 -2672 2919
-3276 55 -21 103 -41 107 -44 5 -4 -26 -85 -68 -181 -691 -1586 -1279 -3289
-1619 -4695 -38 -154 -69 -281 -69 -282 -1 0 -41 -4 -91 -8 -894 -67 -1655
-373 -2053 -825 -271 -308 -423 -686 -439 -1096 -12 -310 44 -575 178 -847 91
-183 191 -318 345 -467 107 -104 179 -158 330 -250 74 -45 92 -60 74 -61 -14
0 -32 -2 -40 -3 -8 -2 -103 -6 -210 -10 -107 -4 -233 -9 -280 -11 -47 -3 -260
-14 -475 -25 -1266 -65 -2096 -153 -2221 -235 -94 -62 90 -118 571 -174 253
-30 808 -76 1150 -96 116 -6 225 -13 345 -20 149 -9 683 -34 1060 -50 323 -13
478 -19 1095 -40 83 -3 312 -10 510 -15 198 -5 441 -12 540 -15 99 -3 293 -7
430 -10 138 -3 342 -7 455 -10 513 -12 1770 -31 2850 -42 959 -10 4377 -10
5330 0 1105 11 2314 29 2840 42 113 3 318 7 455 10 138 3 331 7 430 10 99 3
342 10 540 15 198 5 428 12 510 15 617 21 772 27 1095 40 377 16 911 41 1060
50 120 7 229 14 345 20 342 20 897 66 1150 96 481 56 665 112 571 174 -82 54
-546 121 -1186 170 -405 31 -535 39 -1040 65 -212 11 -425 22 -475 24 -49 3
-175 8 -280 12 -104 4 -197 8 -205 10 -8 1 -26 3 -40 3 -18 1 0 16 74 61 151
92 223 146 330 250 154 149 254 284 345 467 316 639 213 1405 -261 1943 -147
167 -339 313 -565 429 l-83 43 60 66 c363 407 577 859 639 1352 14 106 6 406
-13 530 -82 525 -372 1084 -772 1485 -367 370 -816 601 -1320 681 -148 23
-476 23 -629 0 -190 -29 -379 -83 -566 -160 -12 -5 -32 37 -104 221 -116 300
-317 788 -449 1093 -58 134 -103 247 -98 251 4 3 52 23 107 44 1316 499 2232
1354 2688 2510 242 615 350 1226 350 1995 1 530 -39 951 -144 1515 -101 542
-306 1257 -501 1750 l-63 160 17 198 c52 613 74 1318 58 1939 -10 426 -26 781
-45 1008 -2 30 -7 91 -10 135 -45 628 -179 1662 -286 2194 -93 466 -392 857
-814 1066 -71 36 -166 76 -209 90 -266 85 -561 97 -826 33 -124 -30 -217 -67
-412 -162 -813 -396 -1809 -1066 -2705 -1817 l-151 -127 -74 19 c-376 97 -863
185 -1238 223 -524 54 -1202 46 -1720 -20 -292 -37 -668 -108 -994 -188 l-138
-34 -152 127 c-907 762 -1960 1466 -2756 1844 -205 97 -325 136 -500 162 -99
15 -305 17 -405 4z m405 -463 c36 -8 94 -24 130 -36 76 -27 423 -198 618 -307
724 -400 1599 -1018 2319 -1637 98 -84 188 -158 200 -164 35 -19 88 -14 222
22 1357 367 2645 367 4002 0 134 -36 187 -41 222 -22 12 6 102 80 200 164 721
619 1595 1236 2319 1637 194 108 542 280 617 306 381 131 798 36 1091 -249 87
-84 163 -187 214 -287 52 -103 85 -232 135 -531 141 -837 217 -1520 273 -2472
18 -293 17 -1562 0 -1840 -18 -293 -41 -584 -57 -740 -16 -154 -25 -115 92
-415 128 -329 200 -553 304 -940 112 -422 236 -1043 242 -1216 1 -32 5 -59 8
-59 7 0 30 -215 35 -331 2 -47 7 -94 11 -105 13 -32 9 -767 -5 -914 -33 -353
-65 -552 -129 -810 -119 -480 -319 -927 -588 -1309 -234 -333 -579 -673 -940
-926 -374 -262 -915 -522 -1385 -665 -58 -18 -145 -47 -195 -65 -371 -134
-766 -236 -1425 -370 -179 -37 -329 -70 -334 -75 -29 -28 510 -32 779 -6 388
38 640 76 894 137 68 16 125 29 127 29 5 0 66 -133 136 -295 33 -77 75 -171
93 -210 74 -156 290 -684 476 -1165 l117 -305 -31 -24 c-58 -45 -218 -205
-279 -278 -235 -287 -398 -665 -480 -1116 -19 -106 -22 -157 -22 -382 -1 -234
2 -270 22 -365 104 -474 346 -792 720 -942 152 -61 268 -82 467 -82 185 0 267
10 448 56 66 16 120 28 121 26 1 -2 25 -102 52 -223 30 -133 57 -231 69 -250
35 -52 75 -65 207 -65 144 0 329 -15 513 -41 440 -63 832 -193 1140 -380 360
-217 592 -579 636 -994 42 -398 -98 -781 -386 -1053 -109 -103 -203 -165 -390
-257 -243 -120 -486 -193 -795 -239 -169 -25 -209 -29 -435 -46 -73 -5 -855
-9 -1798 -10 l-1669 0 32 52 c17 29 51 94 77 143 25 50 48 92 52 95 3 3 7 12
9 20 5 23 73 183 85 198 5 6 7 12 3 12 -3 0 8 37 24 83 244 679 380 1747 380
2987 0 450 -12 558 -82 765 -47 138 -83 159 -116 68 -25 -71 -48 -162 -58
-228 -3 -27 -9 -54 -12 -59 -8 -13 -9 -35 -21 -446 -11 -377 -28 -759 -36
-815 -2 -16 -7 -84 -11 -150 -3 -66 -9 -124 -12 -130 -4 -5 -5 -20 -4 -32 4
-27 -21 -263 -54 -508 -116 -871 -299 -1492 -552 -1875 -62 -93 -189 -231
-262 -285 -235 -173 -544 -179 -792 -16 -588 386 -981 1780 -1088 3851 -16
307 -46 505 -102 675 -18 56 -27 70 -43 70 -37 0 -94 -203 -116 -420 -23 -219
8 -925 67 -1515 78 -794 230 -1518 416 -1985 22 -55 41 -104 42 -110 1 -5 10
-25 19 -43 10 -18 15 -38 11 -45 -4 -7 -3 -9 1 -4 8 7 86 -136 88 -160 0 -7 3
-13 7 -13 6 0 32 -49 32 -60 0 -3 5 -12 12 -20 8 -8 25 -34 40 -58 l26 -42
-1504 0 -1505 0 17 29 c9 16 19 28 23 26 3 -2 6 1 6 8 0 10 53 108 98 182 7
11 13 22 13 25 0 3 22 50 47 105 104 223 167 407 245 713 143 558 231 1139
284 1882 43 594 46 1064 7 1254 -31 151 -69 256 -91 256 -53 0 -130 -379 -145
-710 -67 -1493 -319 -2757 -678 -3405 -188 -340 -411 -539 -659 -589 -574
-117 -1007 445 -1247 1616 -129 630 -195 1255 -220 2078 -17 551 -19 590 -40
711 -11 63 -33 156 -48 205 -24 74 -33 90 -51 92 -19 3 -27 -7 -53 -65 -32
-69 -79 -237 -79 -279 0 -13 -3 -24 -7 -24 -13 0 -18 -148 -18 -520 0 -371 11
-839 20 -848 3 -3 5 -29 5 -58 0 -143 53 -679 96 -974 102 -701 276 -1272 500
-1641 19 -31 34 -59 34 -63 0 -10 -3313 -6 -3455 4 -226 17 -266 21 -435 46
-309 46 -552 119 -795 239 -187 92 -281 154 -390 257 -498 471 -527 1250 -68
1782 196 228 536 418 966 542 297 86 702 144 1002 144 131 0 171 12 207 61 10
13 38 115 64 229 274 1218 722 2614 1302 4065 133 331 274 670 324 774 22 46
46 100 53 120 17 47 155 354 164 364 4 4 52 -4 107 -17 260 -64 507 -102 914
-142 264 -26 813 -22 784 6 -5 4 -187 44 -404 89 -623 127 -857 190 -1430 381
-606 201 -879 320 -1260 547 -466 279 -895 670 -1185 1084 -407 579 -634 1240
-712 2064 -21 232 -24 816 -4 1025 7 74 14 162 17 195 13 170 80 623 95 641 5
6 6 13 3 17 -3 3 4 54 16 114 118 605 301 1237 502 1731 69 172 68 164 52 314
-23 224 -53 667 -65 978 -13 333 -7 1346 10 1630 59 972 147 1746 292 2565 59
335 139 508 319 686 156 155 366 266 565 298 39 6 81 13 95 15 45 8 243 -4
310 -18z m12310 -16061 c452 -68 864 -313 1198 -709 227 -271 430 -688 486
-1002 39 -216 37 -463 -4 -661 -88 -424 -365 -854 -754 -1176 -39 -31 -78 -57
-87 -57 -9 0 -70 14 -135 30 -230 58 -458 93 -714 110 -84 5 -157 13 -161 18
-3 4 -24 83 -45 176 l-38 169 23 18 c13 11 28 16 34 12 5 -3 7 -2 4 4 -3 5 20
31 52 59 110 94 225 275 276 434 10 30 20 59 23 65 3 5 7 18 8 30 1 11 7 47
13 80 6 33 15 109 21 168 19 188 63 287 147 328 47 23 109 21 125 -3 4 -7 8
-9 8 -5 0 21 120 -75 120 -96 0 -13 30 -47 42 -47 14 0 9 94 -9 146 -25 74
-113 157 -188 180 -168 48 -328 -39 -420 -231 -34 -69 -46 -113 -95 -335 -23
-109 -71 -232 -121 -316 -44 -73 -154 -191 -221 -237 -61 -42 -243 -105 -398
-138 -148 -32 -417 -32 -535 -1 -172 46 -339 153 -445 285 -64 80 -153 257
-185 371 -107 377 -50 878 152 1341 99 228 261 446 447 602 249 209 532 339
845 388 118 18 412 18 531 0z"/>
<path d="M16613 21760 c-235 -33 -459 -159 -617 -348 -439 -528 -377 -1381
133 -1808 274 -229 644 -286 954 -146 395 179 657 623 657 1114 0 389 -157
746 -430 975 -90 76 -263 166 -370 192 -91 23 -243 32 -327 21z m529 -510
c318 -120 374 -603 96 -826 -59 -47 -162 -78 -238 -71 -233 21 -406 280 -362
539 14 79 55 177 98 233 94 124 267 177 406 125z"/>
<path d="M23167 21759 c-156 -18 -347 -103 -478 -212 -429 -360 -555 -1028
-294 -1563 234 -482 709 -707 1169 -553 333 111 592 413 692 807 147 578 -105
1199 -581 1432 -110 54 -178 75 -299 90 -89 11 -110 11 -209 -1z m-45 -521
c167 -78 270 -293 240 -500 -15 -107 -57 -193 -127 -267 -227 -238 -587 -97
-646 252 -38 227 75 451 266 527 73 29 190 24 267 -12z"/>
<path d="M19825 20034 c-16 -2 -66 -9 -110 -15 -121 -16 -231 -46 -323 -89
-297 -139 -312 -416 -37 -696 120 -122 252 -192 426 -228 77 -15 79 -19 49
-143 -81 -341 -307 -505 -700 -505 -383 -1 -583 141 -737 523 -51 128 -54 132
-75 124 -31 -12 -53 -121 -52 -260 0 -115 4 -139 27 -204 62 -171 166 -292
335 -388 80 -45 243 -98 345 -112 113 -16 330 -14 432 4 221 39 431 159 545
314 25 33 47 60 50 61 3 0 16 -17 30 -37 38 -56 139 -154 206 -198 151 -100
306 -145 529 -152 193 -7 302 6 442 51 255 83 418 232 500 457 25 67 27 87 27
214 0 116 -3 149 -20 194 -34 91 -44 84 -108 -71 -157 -381 -354 -521 -736
-520 -322 0 -528 107 -638 332 -45 90 -85 232 -80 277 3 24 9 28 67 39 174 36
306 106 426 228 126 129 197 265 196 379 0 93 -25 153 -92 220 -90 90 -224
146 -434 183 -78 14 -429 27 -490 18z m345 -174 c283 -30 355 -111 145 -164
-256 -65 -750 -19 -750 68 0 76 318 126 605 96z"/>
<path d="M20580 28893 c-272 -10 -545 -62 -766 -146 -303 -116 -487 -160 -669
-161 -156 -1 -197 10 -358 92 -128 66 -193 83 -309 83 -227 -1 -409 -110 -539
-324 -34 -56 -126 -197 -204 -313 l-142 -211 110 -88 110 -88 18 24 c32 40
283 418 342 514 67 108 94 135 172 172 83 39 196 40 270 2 28 -14 82 -42 121
-62 132 -68 204 -82 409 -81 157 0 195 4 295 27 136 31 234 61 432 133 257 94
449 132 708 141 177 7 316 -6 458 -42 108 -28 175 -57 277 -120 89 -56 214
-107 320 -131 80 -18 240 -23 445 -14 64 2 94 -1 122 -13 21 -10 99 -76 174
-147 75 -72 140 -130 145 -130 12 0 219 160 219 170 0 4 -74 78 -165 164 -135
127 -177 161 -237 190 -109 52 -186 63 -345 46 -200 -20 -353 7 -489 86 -194
113 -360 176 -539 204 -84 14 -295 26 -385 23z"/>
<path d="M11902 27786 c-29 -38 -126 -239 -165 -346 -30 -81 -64 -204 -83
-297 -4 -21 -6 -21 -100 18 -123 50 -287 94 -432 114 -104 15 -115 15 -137 1
-32 -21 -32 -50 1 -123 36 -79 74 -175 74 -185 0 -18 -111 -58 -172 -63 -48
-4 -67 -10 -80 -26 -25 -29 -24 -36 24 -130 35 -70 59 -102 152 -195 69 -69
140 -128 188 -158 49 -30 75 -52 71 -60 -4 -6 -37 -58 -73 -116 -120 -189
-220 -394 -220 -449 0 -12 10 -31 21 -42 18 -18 29 -20 68 -16 l46 6 -35 -30
c-67 -58 -386 -286 -530 -379 -211 -135 -369 -229 -599 -353 -172 -93 -207
-108 -222 -99 -52 33 -385 -8 -594 -73 -43 -13 -80 -23 -80 -22 -1 1 -7 45
-14 97 -25 200 -140 554 -194 598 -28 23 -70 11 -92 -27 -23 -41 -127 -151
-142 -151 -19 0 -95 74 -131 129 -30 45 -43 57 -68 59 -39 4 -52 -12 -97 -118
-72 -173 -147 -461 -147 -567 0 -17 -4 -23 -14 -20 -125 48 -309 86 -487 99
-133 11 -149 10 -173 -5 -16 -11 -26 -27 -26 -42 0 -13 27 -72 60 -132 33 -59
60 -115 60 -124 0 -23 -106 -76 -168 -85 -53 -7 -82 -28 -82 -57 0 -59 108
-202 221 -293 67 -55 70 -58 47 -67 -49 -18 -633 -158 -860 -206 -130 -28
-373 -76 -539 -106 -167 -31 -304 -57 -304 -58 -1 -1 -18 -74 -38 -162 -100
-442 -194 -1020 -247 -1510 -11 -104 -22 -207 -25 -227 -2 -21 -7 -84 -11
-140 l-6 -103 41 -93 c251 -568 588 -1031 1026 -1410 l60 -52 -38 0 c-51 0
-229 -27 -302 -46 -126 -33 -126 -63 0 -195 52 -54 95 -102 95 -107 0 -19 -82
-86 -141 -115 -58 -29 -64 -35 -67 -66 -3 -30 3 -40 58 -93 110 -104 268 -182
458 -224 74 -17 82 -21 78 -39 -75 -276 -110 -611 -68 -648 10 -10 27 -17 37
-17 10 0 73 29 140 65 68 36 127 65 133 65 13 0 71 -160 79 -217 7 -52 19 -70
55 -78 23 -6 35 1 78 41 132 124 275 319 355 487 l52 108 29 -24 c133 -110
397 -237 606 -292 63 -17 69 -17 93 -1 29 19 32 47 10 99 -15 37 -48 217 -40
225 2 2 70 7 151 10 125 4 150 8 166 24 10 10 18 26 18 36 0 21 -61 128 -119
206 -52 70 -206 249 -249 290 l-31 29 97 96 c108 106 185 215 232 327 41 100
48 156 23 181 -17 17 -30 19 -99 16 -49 -3 -96 1 -124 9 -53 17 -53 14 -10
183 26 99 27 112 14 133 -11 16 -24 22 -50 22 -85 0 -407 -132 -535 -220 -32
-22 -62 -40 -66 -40 -5 0 -19 28 -32 63 -54 143 -193 377 -304 510 -36 43 -43
48 -76 45 -35 -3 -37 -5 -58 -66 -12 -35 -38 -88 -57 -118 -33 -50 -38 -53
-62 -44 -47 18 -109 59 -144 95 -41 42 -82 47 -105 12 -13 -21 -39 -170 -47
-277 -3 -35 -4 -34 -64 60 -291 451 -514 970 -658 1532 -68 263 -131 605 -161
869 l-6 56 138 27 c76 15 220 46 321 68 l182 40 98 -99 c456 -461 1083 -817
1770 -1008 631 -175 1354 -216 2029 -117 l123 18 -17 -25 c-120 -182 -156
-258 -136 -289 9 -15 29 -17 133 -15 l123 2 -7 -78 c-3 -44 -11 -93 -17 -109
-17 -49 3 -76 51 -69 97 13 354 154 459 252 l49 46 27 -53 c49 -95 117 -181
231 -295 92 -92 118 -113 142 -113 l29 0 38 158 c20 86 38 162 39 167 0 6 -15
11 -35 13 -33 3 -37 0 -54 -37 -9 -22 -26 -68 -35 -103 l-18 -63 -65 68 c-99
104 -147 170 -202 281 -65 130 -77 133 -160 47 -70 -73 -171 -144 -291 -205
l-89 -45 -3 101 c-1 56 -8 108 -14 115 -7 9 -40 13 -109 13 -58 0 -99 4 -99
10 0 14 124 195 189 275 31 38 59 76 62 85 10 24 -7 46 -68 87 -110 73 -257
241 -238 273 3 5 16 10 28 10 33 0 146 57 154 77 4 9 -3 53 -14 98 -12 44 -20
81 -19 82 1 2 36 -6 76 -18 86 -24 198 -73 292 -130 56 -34 70 -39 87 -29 12
6 23 23 26 38 25 121 53 204 112 321 66 134 66 135 82 110 37 -57 94 -109 119
-109 14 0 54 16 90 35 35 20 66 34 68 32 2 -2 11 -48 19 -103 17 -116 19 -243
4 -333 -9 -58 -8 -66 9 -83 18 -19 22 -19 78 -3 32 9 114 19 182 22 136 7 129
3 148 80 l7 26 -114 -6 c-63 -4 -135 -9 -161 -13 l-47 -7 0 124 c0 158 -31
372 -63 432 -15 29 -61 22 -87 -14 -20 -27 -104 -89 -122 -89 -12 0 -78 104
-85 133 -7 32 -40 49 -67 35 -44 -23 -175 -263 -223 -408 -15 -47 -29 -87 -30
-89 -2 -2 -40 15 -86 37 -93 46 -229 92 -331 112 -113 23 -125 0 -78 -135 17
-48 31 -91 31 -96 0 -18 -69 -39 -128 -39 -32 0 -63 -5 -70 -12 -31 -31 5
-133 82 -235 l55 -73 -64 0 c-214 0 -653 41 -920 85 -660 110 -1311 381 -1800
749 -118 89 -355 292 -355 304 0 5 19 13 43 19 34 9 45 9 58 -3 22 -20 47 -18
189 16 77 17 129 25 134 19 6 -5 11 -73 13 -151 3 -153 8 -168 58 -168 29 0
169 85 280 170 86 65 240 215 298 290 l28 35 32 -40 c98 -124 244 -256 387
-352 155 -104 187 -117 225 -89 16 12 19 25 17 77 -4 75 7 211 17 227 5 8 44
3 134 -18 71 -17 139 -30 151 -30 30 0 56 30 56 62 0 64 -98 311 -197 494 -23
44 -43 85 -43 90 0 6 17 18 38 28 65 31 185 109 247 161 33 28 121 84 195 125
347 190 700 423 975 644 178 143 429 370 504 456 38 43 70 68 108 85 153 68
354 207 478 332 41 42 77 74 80 71 2 -2 22 -31 43 -64 22 -33 67 -93 102 -134
72 -83 78 -81 79 27 1 60 -1 65 -55 140 -31 43 -70 105 -86 138 -34 68 -42 75
-80 75 -21 0 -37 -13 -71 -57 -98 -127 -252 -256 -415 -350 l-77 -43 -11 131
c-8 110 -13 134 -29 145 -23 17 -81 17 -197 0 l-87 -12 15 36 c25 60 124 230
206 352 94 140 97 158 32 196 -131 78 -205 131 -267 191 -61 59 -137 150 -137
164 0 3 24 13 53 23 116 38 187 89 187 135 0 16 -15 69 -34 119 -40 106 -44
103 94 70 132 -32 259 -77 354 -125 48 -25 95 -45 106 -45 31 0 48 27 55 87
16 150 77 357 147 498 17 33 32 62 34 64 2 2 37 -28 78 -67 60 -58 80 -72 105
-72 33 0 123 51 172 97 l26 24 22 -79 c11 -43 21 -86 21 -95 0 -9 4 -17 8 -17
13 0 45 264 38 304 -13 68 -81 93 -116 43 -30 -44 -81 -95 -120 -122 l-41 -28
-44 43 c-24 24 -54 64 -67 89 -13 25 -29 54 -37 64 -21 25 -66 22 -89 -7z
m-3393 -2605 c72 -51 111 -40 218 62 l42 40 20 -46 c60 -140 111 -375 111
-513 0 -71 3 -87 20 -104 26 -26 36 -25 101 4 126 55 303 100 456 114 l81 8
-23 -41 c-13 -22 -35 -69 -50 -104 -22 -53 -24 -68 -15 -90 14 -33 80 -83 156
-117 32 -15 61 -28 63 -30 9 -8 -76 -98 -137 -148 -83 -66 -168 -117 -258
-155 -109 -46 -110 -54 -27 -209 73 -136 139 -274 173 -361 l21 -53 -28 7
c-100 25 -220 45 -240 40 -33 -8 -42 -33 -61 -166 l-17 -121 -90 64 c-118 83
-297 263 -355 356 -46 74 -69 90 -112 78 -13 -3 -34 -24 -47 -48 -65 -116
-221 -276 -377 -386 l-89 -64 -7 64 c-17 151 -29 198 -55 215 -23 15 -32 14
-146 -9 -67 -14 -124 -24 -126 -22 -12 11 148 353 235 500 30 52 13 72 -110
132 -58 28 -134 70 -168 94 -60 40 -198 171 -198 186 0 4 35 24 78 44 42 20
94 53 116 72 47 43 46 56 -14 183 -22 47 -40 87 -40 87 0 5 166 -16 240 -30
94 -18 244 -66 304 -96 43 -22 80 -18 94 10 5 9 12 69 15 132 9 152 49 322
116 494 l12 29 37 -35 c20 -20 57 -50 81 -67z m-1032 -4618 c79 -119 155 -270
187 -373 39 -122 46 -134 84 -138 25 -3 42 5 79 36 62 52 139 100 238 149 97
48 223 98 230 91 3 -3 -2 -48 -11 -100 -23 -126 -18 -143 53 -175 31 -14 87
-31 125 -37 76 -12 79 -16 47 -79 -49 -97 -151 -220 -247 -298 -135 -111 -135
-105 4 -252 104 -109 218 -246 257 -307 l19 -30 -34 0 c-18 -1 -78 -5 -132 -9
-79 -6 -102 -12 -113 -26 -16 -23 -16 -84 1 -195 7 -47 12 -86 11 -88 -5 -6
-187 68 -268 109 -106 53 -197 114 -272 181 -33 30 -69 58 -79 61 -33 13 -63
-18 -81 -80 -23 -79 -83 -206 -140 -295 -51 -79 -184 -248 -195 -248 -4 0 -13
19 -19 43 -18 59 -79 190 -94 199 -27 17 -70 6 -172 -46 l-107 -53 7 66 c9 91
41 253 76 395 28 109 29 120 14 142 -8 13 -25 26 -38 28 -12 3 -51 10 -87 16
-147 26 -296 84 -393 153 l-48 34 35 22 c47 29 143 136 151 168 7 30 -17 71
-94 155 l-51 56 27 6 c148 30 395 38 511 17 74 -14 95 -9 110 24 9 19 7 40 -8
99 -30 119 -42 293 -30 441 5 70 10 130 10 132 0 3 19 -6 43 -20 23 -13 70
-35 104 -47 58 -21 64 -21 87 -7 27 18 84 86 112 135 10 17 22 32 26 32 3 0
33 -39 65 -87z"/>
<path d="M30539 23058 c-84 -88 -236 -353 -270 -465 -7 -24 -14 -43 -15 -43
-2 0 -29 16 -61 37 -82 52 -206 108 -328 148 -185 61 -198 50 -150 -127 14
-51 25 -98 25 -105 0 -19 -59 -33 -142 -33 -73 0 -79 -2 -90 -24 -33 -73 73
-267 229 -418 l80 -77 -69 -78 c-129 -146 -240 -303 -255 -361 -3 -14 1 -30
12 -42 16 -18 32 -20 142 -20 l123 0 0 -42 c0 -24 -7 -70 -16 -103 -40 -150
-21 -166 136 -115 130 42 314 134 406 203 l71 54 28 -64 c42 -98 153 -258 248
-359 68 -72 94 -108 126 -177 179 -388 487 -838 858 -1253 59 -67 128 -153
151 -192 24 -38 71 -99 104 -135 l59 -66 -119 -118 c-130 -129 -242 -271 -242
-308 0 -12 6 -28 14 -34 8 -6 69 -18 136 -26 68 -8 124 -16 126 -18 6 -5 -35
-157 -52 -192 -37 -78 1 -101 124 -74 174 38 343 104 464 181 l55 36 13 -41
c20 -70 95 -221 151 -304 70 -104 159 -212 181 -219 37 -11 56 5 73 63 21 70
59 158 74 167 6 4 35 -7 64 -25 151 -95 158 -98 181 -89 17 6 30 3 52 -15 l29
-24 -60 -26 c-240 -107 -528 -193 -776 -231 l-109 -17 -343 339 c-188 186
-433 425 -544 531 -251 238 -290 261 -503 294 -144 23 -202 44 -242 87 -14 15
-126 158 -249 317 -657 856 -1494 1902 -2341 2927 -180 218 -332 399 -338 403
-17 10 -12 -4 63 -205 41 -107 100 -273 131 -367 l58 -173 187 -227 c555 -676
1498 -1861 2022 -2543 129 -168 251 -321 272 -342 91 -88 184 -128 359 -153
64 -9 135 -26 163 -39 49 -23 174 -139 750 -700 l180 -175 -100 0 c-364 -2
-862 85 -1335 232 l-75 24 31 16 c52 27 130 94 153 131 29 46 21 72 -26 85
-36 10 -103 51 -103 63 0 4 25 40 55 80 30 40 55 78 55 85 0 7 -11 20 -25 29
-21 14 -54 17 -178 18 -84 1 -175 -2 -203 -7 l-51 -7 -5 137 c-7 196 -47 353
-89 353 -6 0 -24 -15 -42 -34 -18 -18 -47 -43 -65 -56 -32 -21 -34 -21 -53 -4
-10 9 -31 41 -45 70 -42 87 -66 83 -126 -19 -58 -100 -114 -222 -134 -294
l-17 -62 -58 30 c-125 62 -347 121 -374 99 -21 -17 -19 -35 10 -118 14 -39 25
-76 25 -81 0 -15 -52 -31 -109 -35 -80 -4 -86 -27 -34 -133 31 -62 111 -154
183 -209 53 -41 59 -54 34 -74 -23 -20 -151 -214 -175 -266 -11 -25 -19 -58
-17 -72 l3 -27 109 1 108 2 -8 -72 c-14 -128 -13 -141 17 -144 15 -2 54 8 87
21 33 14 63 22 66 19 3 -3 6 0 6 7 0 7 5 11 12 9 6 -2 20 4 31 15 10 10 25 16
33 13 10 -4 12 -2 8 6 -5 8 -2 9 9 5 10 -4 16 -2 14 6 -1 7 6 11 15 11 10 -1
16 1 14 5 -3 4 9 14 25 24 29 16 30 16 24 -2 -7 -22 15 -43 34 -32 9 6 10 11
2 15 -6 4 -11 2 -11 -5 0 -25 -15 3 -16 29 0 20 12 38 44 67 25 22 47 35 49
29 26 -76 257 -337 322 -364 39 -16 61 -1 61 43 0 39 30 147 41 147 5 0 42
-13 84 -30 84 -34 107 -36 124 -16 14 17 7 88 -20 198 -10 42 -19 78 -19 80 0
2 55 -24 123 -57 584 -293 1242 -455 1850 -455 l114 0 194 -202 c359 -375 871
-928 891 -963 11 -18 -219 -251 -250 -252 -20 -2 -21 0 -7 13 15 16 12 34 -5
34 -5 0 -7 -7 -4 -15 4 -9 -1 -18 -11 -21 -15 -6 -14 -9 6 -20 18 -10 20 -13
7 -14 -9 0 -21 -6 -25 -14 -4 -7 -21 -21 -38 -30 -16 -10 -21 -15 -10 -12 16
4 15 2 -5 -12 -14 -9 -35 -28 -47 -41 -13 -13 -23 -20 -23 -15 0 5 -4 5 -8 -1
-16 -22 -85 -79 -77 -65 4 8 -6 -1 -23 -20 -23 -27 -30 -30 -27 -15 2 11 4 28
4 38 1 10 4 16 9 14 4 -3 8 9 9 26 1 30 9 92 16 127 1 8 7 21 11 29 6 10 5 12
-3 7 -6 -4 -14 0 -17 8 -8 20 -72 21 -99 2 -11 -7 -27 -13 -35 -14 -8 0 -24
-3 -35 -6 -80 -20 -88 -20 -83 2 3 12 1 23 -6 25 -7 2 -11 32 -11 83 0 72 -2
81 -25 101 -31 29 -32 29 -82 -3 -34 -22 -45 -24 -65 -15 -35 16 -38 14 -12
-8 l23 -18 -23 -13 c-13 -6 -21 -8 -17 -2 3 5 -1 15 -9 22 -12 10 -13 7 -9
-14 3 -18 -1 -28 -15 -35 -10 -6 -22 -7 -26 -3 -5 4 -5 2 -1 -5 3 -7 -7 -21
-26 -35 -18 -12 -41 -31 -50 -40 -21 -21 -39 -23 -58 -5 -12 10 -12 9 -2 -4 6
-9 8 -20 4 -24 -4 -5 0 -4 8 0 13 8 13 6 1 -8 -7 -9 -18 -14 -25 -10 -6 3 -8
3 -4 -2 4 -4 3 -14 -4 -22 -9 -11 -14 -11 -31 4 -11 10 -17 13 -14 7 8 -14
-20 -27 -35 -17 -6 3 -8 1 -5 -4 4 -6 0 -16 -7 -22 -17 -14 -31 2 -20 22 4 6
-3 3 -15 -8 -12 -11 -21 -15 -19 -10 2 6 -1 10 -7 10 -5 0 -9 -6 -7 -12 4 -18
-8 -16 -32 4 l-21 17 21 -22 c17 -19 25 -21 46 -13 26 10 38 6 38 -11 0 -5 -4
-6 -10 -3 -6 3 -7 -1 -4 -9 7 -18 24 -11 24 10 0 8 4 14 10 14 5 0 6 -8 3 -17
-6 -15 -5 -16 9 -3 11 10 12 17 5 22 -6 4 -8 11 -3 15 5 4 11 2 13 -5 3 -6 10
-9 16 -5 7 3 -8 -16 -33 -43 -25 -28 -49 -48 -54 -46 -5 3 0 11 10 19 19 14
19 14 -1 11 -14 -2 -20 2 -18 16 1 12 -2 15 -9 8 -7 -7 -21 3 -44 28 -35 38
-44 57 -21 43 6 -4 4 5 -6 20 -16 25 -15 32 7 28 5 -1 4 5 -4 13 -14 17 -21
20 -19 9 3 -21 -3 -22 -28 -7 -22 13 -20 10 7 -13 19 -17 33 -33 30 -36 -3 -3
-36 22 -72 56 -37 34 -87 77 -110 94 -70 53 -84 65 -69 57 10 -5 12 -3 7 5 -5
7 -14 10 -22 7 -8 -3 -14 1 -14 8 0 8 -7 17 -16 20 -9 3 -12 2 -9 -5 4 -6 1
-9 -6 -8 -24 5 -57 -11 -61 -29 -3 -9 -6 -45 -7 -79 -1 -34 -8 -84 -14 -110
l-12 -48 -40 4 c-45 4 -137 40 -130 52 6 8 -25 22 -33 14 -3 -3 0 -5 6 -5 7 0
12 -4 12 -10 0 -5 -9 -10 -21 -10 -11 0 -18 4 -15 9 3 5 -1 12 -9 15 -12 4
-14 2 -6 -11 6 -12 4 -24 -6 -39 -8 -12 -15 -36 -15 -52 -1 -29 -11 -34 -35
-19 -6 4 -15 2 -19 -4 -4 -7 -3 -9 4 -5 6 3 13 2 17 -4 4 -6 11 -8 16 -5 12 8
17 -6 27 -87 6 -44 5 -65 -2 -61 -5 4 -2 -4 7 -18 20 -27 23 -49 5 -31 -7 7
-16 12 -21 12 -5 0 -2 -7 7 -15 8 -8 18 -15 23 -15 4 0 14 -19 21 -42 7 -24
24 -65 38 -91 14 -27 19 -45 12 -41 -7 5 -1 -7 15 -25 15 -18 27 -40 26 -49 0
-14 -2 -13 -9 3 -8 19 -9 19 -9 -4 -1 -18 -5 -22 -18 -17 -10 4 -14 4 -10 0 4
-4 -19 -22 -51 -39 -39 -22 -59 -29 -64 -21 -5 7 -8 5 -8 -6 0 -9 -5 -20 -12
-24 -7 -5 -8 -3 -3 5 6 10 3 11 -16 1 -32 -17 -39 -25 -14 -16 13 5 17 4 10
-3 -5 -5 -16 -11 -24 -13 -8 -2 -24 -11 -35 -20 -12 -10 -24 -16 -28 -15 -4 1
-15 -8 -23 -20 -15 -22 -43 -34 -30 -14 8 15 -15 25 -28 12 -14 -14 -30 -15
-22 -1 3 6 2 10 -3 10 -5 0 -9 -15 -9 -34 1 -19 5 -32 9 -30 5 3 6 9 3 14 -3
5 -1 11 5 15 5 3 10 0 10 -8 0 -8 -18 -31 -39 -50 -29 -26 -39 -42 -37 -61 4
-37 18 -49 70 -65 25 -7 46 -17 46 -23 0 -5 4 -6 10 -3 11 7 70 -22 88 -44 8
-9 11 -10 7 -3 -4 7 0 12 10 12 12 0 15 -6 9 -22 -14 -47 -45 -97 -57 -94 -6
1 -9 1 -4 -1 4 -3 7 -9 7 -14 0 -6 -5 -7 -12 -3 -7 5 -8 3 -4 -5 5 -7 0 -18
-10 -26 -16 -12 -21 -12 -31 2 -7 9 -13 12 -13 6 0 -7 5 -15 10 -18 6 -3 10
-11 10 -16 0 -6 -4 -8 -9 -5 -4 3 -6 -9 -4 -27 3 -17 5 -37 6 -44 0 -7 3 -12
6 -11 3 0 8 -1 11 -2 10 -5 68 -8 190 -9 137 0 182 2 220 12 14 4 41 9 60 12
54 7 69 11 76 18 12 12 26 8 17 -5 -4 -7 5 -5 20 5 15 9 27 14 27 10 0 -5 4
-3 8 3 4 6 16 14 28 18 19 6 21 2 21 -34 0 -22 -4 -40 -9 -40 -4 0 -8 -5 -8
-11 0 -5 5 -7 10 -4 6 3 10 2 10 -4 0 -5 3 -17 7 -27 4 -12 3 -15 -6 -10 -8 6
-7 -2 3 -22 9 -17 16 -40 16 -50 0 -11 13 -62 30 -113 34 -107 33 -102 21 -95
-5 4 -12 0 -15 -6 -3 -7 -4 -2 -2 12 2 14 1 19 -1 11 -4 -12 -6 -12 -15 0 -10
14 -7 2 9 -38 4 -11 3 -14 -5 -9 -7 4 -12 3 -12 -3 0 -5 9 -9 19 -8 11 0 17 6
14 14 -3 7 -2 13 2 13 12 0 35 -28 38 -47 2 -10 9 -29 16 -42 7 -13 8 -21 3
-17 -6 3 -14 1 -18 -5 -4 -7 -3 -9 3 -6 12 8 46 -27 36 -36 -3 -4 -1 -7 6 -7
8 0 11 -6 7 -16 -3 -8 -2 -12 3 -9 6 3 14 -2 20 -12 6 -12 19 -17 42 -15 29 2
31 1 18 -15 -13 -16 -12 -17 3 -4 10 7 15 17 13 22 -7 11 30 30 40 21 5 -4 5
-1 1 6 -4 7 -12 9 -18 6 -15 -9 -4 8 43 71 74 98 74 98 87 82 7 -7 9 -17 5
-20 -3 -4 1 -7 10 -7 9 0 17 -7 17 -15 0 -8 4 -15 10 -15 17 0 61 -51 54 -63
-4 -7 -4 -9 0 -5 5 4 20 -4 34 -18 15 -13 36 -24 47 -24 33 0 65 12 59 21 -3
5 -1 9 3 9 5 0 9 10 10 22 1 11 6 24 10 27 4 3 9 17 11 31 1 14 7 27 12 28 6
2 10 8 10 13 0 6 -4 7 -10 4 -7 -4 -7 3 0 20 20 53 49 254 49 343 0 24 4 41 8
39 27 -17 242 -26 276 -12 11 5 17 3 17 -6 0 -9 3 -10 8 -4 10 14 32 17 32 5
0 -5 -5 -10 -12 -10 -6 0 -8 -3 -4 -7 4 -5 14 0 21 11 8 10 49 31 93 46 145
51 170 85 109 148 -19 20 -38 47 -41 59 -4 11 -13 27 -21 33 -13 11 -13 14 2
26 16 12 16 13 -4 7 -38 -9 -26 13 19 37 33 17 43 19 50 8 8 -10 9 -9 5 3 -4
13 10 25 53 48 63 34 74 49 60 85 -8 23 -75 75 -114 89 -11 5 -16 13 -12 22 3
9 -1 18 -9 21 -8 4 -12 11 -8 17 4 6 1 7 -7 2 -10 -6 -9 -11 5 -22 18 -12 18
-13 -3 -13 -12 0 -22 5 -22 10 0 6 -3 9 -7 8 -15 -4 -53 14 -53 24 0 6 -3 8
-7 5 -3 -4 -12 1 -20 11 -8 9 -11 11 -7 3 4 -8 2 -12 -5 -10 -24 8 -15 23 19
32 19 5 40 13 47 18 7 7 14 6 18 -1 3 -5 12 -10 18 -10 8 0 7 3 -2 9 -11 7 -9
11 8 21 17 9 26 9 37 -1 12 -9 13 -9 9 3 -9 24 35 38 63 20 19 -12 22 -13 20
-1 -3 15 1 15 42 5 16 -4 12 0 -10 10 -23 11 -36 12 -38 5 -2 -6 -8 -8 -14 -5
-5 4 15 20 47 35 31 16 61 26 67 23 6 -4 8 -3 5 3 -3 5 28 30 71 54 99 56 255
158 264 173 16 23 150 442 218 681 77 270 182 676 176 682 -2 2 -23 -29 -46
-68 -106 -179 -349 -524 -368 -524 -5 0 -82 81 -172 180 -90 99 -256 278 -369
399 -114 120 -243 258 -288 306 -46 49 -83 91 -83 94 0 3 9 6 19 6 47 0 308
54 437 90 184 52 328 106 492 185 l133 65 175 -107 c98 -59 179 -102 184 -97
7 8 56 267 95 504 8 52 17 105 20 116 4 19 -17 35 -163 120 -336 197 -797 493
-785 505 5 3 26 12 48 19 107 34 258 133 271 177 10 35 -1 50 -54 77 -63 32
-116 90 -103 114 5 10 43 46 85 82 81 69 93 88 76 119 -20 39 -268 98 -453
108 -114 6 -118 7 -113 27 27 97 40 217 40 382 0 155 -2 185 -17 207 -23 35
-50 34 -97 -3 -38 -30 -115 -69 -137 -70 -14 0 -73 115 -73 144 0 32 -28 66
-54 66 -56 0 -289 -302 -353 -456 -10 -24 -21 -44 -25 -44 -3 0 -19 11 -35 24
-108 91 -359 219 -459 235 -36 5 -53 19 -139 111 -127 136 -298 335 -411 480
-117 149 -289 394 -323 458 -12 23 -12 23 18 8 38 -20 55 -20 75 0 32 32 14
232 -41 452 -14 57 -23 105 -21 108 3 2 39 13 80 23 153 39 265 98 361 189 43
42 57 62 57 84 0 25 -7 31 -53 52 -51 22 -127 80 -127 96 0 4 36 47 80 96 44
49 80 96 80 105 0 9 -8 23 -17 32 -40 35 -333 73 -481 63 l-92 -7 7 43 c14 75
7 396 -10 487 -17 89 -20 95 -54 105 -17 5 -30 -1 -55 -25 -43 -41 -117 -89
-139 -89 -21 0 -73 82 -89 139 -18 67 -56 78 -101 29z m54 -171 c10 -18 36
-53 57 -76 46 -51 56 -50 162 3 l67 34 8 -47 c14 -88 8 -331 -10 -419 -27
-126 -14 -142 93 -121 67 13 379 8 417 -7 21 -9 20 -11 -23 -63 -68 -82 -78
-105 -60 -138 21 -39 64 -85 109 -118 l39 -29 -24 -18 c-36 -28 -168 -94 -224
-112 -27 -9 -88 -24 -133 -34 -52 -10 -88 -23 -94 -33 -8 -12 -1 -56 26 -165
35 -142 71 -334 63 -341 -2 -2 -45 17 -96 42 -104 50 -120 53 -143 27 -16 -17
-77 -161 -77 -181 0 -21 -18 -11 -61 37 -95 101 -188 253 -229 372 -21 59 -49
100 -71 100 -4 0 -41 -29 -81 -64 -41 -36 -107 -85 -147 -110 -67 -41 -222
-114 -280 -131 -23 -7 -24 -5 -17 25 3 18 9 70 12 114 9 107 6 109 -139 116
l-110 5 75 100 c42 55 115 142 162 193 81 87 96 113 78 137 -4 6 -40 36 -80
68 -85 68 -167 164 -211 246 l-31 58 61 12 c80 16 145 45 159 71 8 16 7 41 -5
106 -9 48 -14 88 -12 90 5 6 101 -28 179 -64 70 -31 198 -110 234 -144 15 -13
33 -18 55 -16 32 3 34 5 55 78 11 41 33 104 48 140 44 101 157 290 174 290 4
0 15 -15 25 -33z m2242 -2881 c40 -60 41 -61 85 -60 25 1 71 13 103 27 l57 26
0 -122 c0 -135 -19 -271 -50 -361 -37 -109 -37 -109 152 -112 111 -1 182 -7
257 -22 57 -12 106 -24 109 -27 3 -3 -22 -34 -56 -69 -76 -79 -79 -101 -24
-174 21 -28 50 -60 65 -72 15 -12 27 -25 27 -30 0 -15 -160 -87 -234 -105 -38
-9 -104 -20 -147 -25 -44 -4 -86 -14 -95 -21 -18 -15 -17 -38 11 -209 8 -52
18 -144 22 -205 l6 -109 -24 15 c-66 42 -146 87 -165 93 -33 10 -60 -20 -108
-118 l-44 -88 -55 78 c-79 111 -141 234 -172 339 -15 50 -31 100 -36 113 -14
37 -56 28 -129 -29 -79 -61 -214 -128 -338 -169 -118 -38 -126 -38 -117 -2 4
15 13 61 20 102 20 114 17 117 -149 140 -37 5 -70 11 -73 14 -10 9 71 98 204
226 94 90 133 133 133 149 0 15 -32 56 -92 121 -70 72 -105 120 -140 187 -27
50 -48 97 -48 105 0 12 17 17 68 20 89 7 150 32 159 66 3 14 1 62 -5 106 -5
45 -9 82 -8 83 5 6 172 -80 234 -120 37 -24 97 -69 135 -101 97 -82 107 -78
161 63 31 80 102 198 180 298 53 67 61 74 70 58 6 -10 29 -45 51 -79z m-2965
-1096 c29 -16 42 -13 102 24 l57 34 12 -52 c7 -29 13 -124 14 -218 0 -107 5
-172 12 -179 8 -8 32 -6 89 7 78 18 295 26 309 12 3 -3 -10 -28 -29 -56 -20
-27 -36 -61 -36 -75 0 -24 38 -66 100 -110 l25 -18 -35 -30 c-45 -39 -180
-103 -247 -119 -75 -17 -81 -28 -54 -103 24 -66 74 -231 85 -284 l7 -32 -76
30 c-42 16 -83 29 -90 29 -21 0 -41 -37 -61 -113 l-18 -67 -44 42 c-74 72
-145 168 -188 252 -52 103 -68 108 -135 37 -62 -65 -156 -134 -241 -177 -37
-19 -71 -34 -75 -34 -5 0 -7 35 -5 79 5 108 -4 115 -115 108 l-83 -5 28 49
c15 28 64 99 110 160 45 60 82 116 82 125 0 8 -21 29 -47 47 -96 65 -223 198
-223 234 0 7 9 13 21 13 28 0 129 49 136 66 3 8 -2 44 -11 80 -9 37 -15 68
-12 71 10 10 157 -43 255 -93 58 -30 111 -54 118 -54 17 0 29 26 37 78 10 63
43 155 93 255 l44 89 35 -46 c19 -25 43 -50 54 -56z m2071 -3029 c52 -53 119
-131 147 -173 69 -103 82 -103 153 -6 29 40 84 103 122 141 82 81 212 181 225
173 5 -3 12 -21 15 -39 3 -19 15 -58 27 -86 27 -62 43 -68 148 -53 42 6 78 9
79 8 2 -1 -10 -50 -26 -107 -37 -131 -92 -261 -142 -339 -21 -34 -39 -69 -39
-79 0 -27 30 -48 81 -54 73 -10 206 -55 319 -109 l105 -51 -25 -16 c-144 -94
-145 -95 -143 -130 1 -18 19 -68 40 -110 21 -42 39 -79 41 -82 1 -4 -35 -14
-81 -24 -84 -18 -208 -17 -369 1 -54 6 -58 5 -67 -17 -5 -13 -16 -94 -25 -179
-15 -142 -41 -298 -52 -309 -3 -3 -39 30 -82 72 -48 48 -86 77 -99 77 -14 0
-48 -28 -97 -81 l-76 -82 -19 46 c-57 133 -92 289 -97 432 -3 90 -6 112 -21
122 -23 18 -33 17 -96 -12 -99 -46 -240 -76 -385 -82 l-133 -6 47 97 c64 132
62 138 -73 192 l-102 41 27 20 c52 38 188 120 287 173 55 29 106 57 113 63 20
16 14 46 -23 108 -72 117 -135 291 -135 370 0 26 1 27 38 18 60 -14 165 -11
189 6 21 15 43 102 43 174 l0 32 33 -22 c17 -12 75 -66 128 -118z"/>
<path d="M11301 20130 c-178 -209 -336 -390 -352 -401 -16 -11 -70 -34 -119
-50 -212 -68 -432 -194 -571 -326 -35 -33 -36 -36 -28 -80 24 -125 -59 -214
-200 -215 -63 -1 -68 -2 -108 -41 -27 -25 -43 -50 -43 -64 0 -32 -26 -93 -53
-122 -28 -30 -114 -71 -150 -71 -22 0 -61 -28 -167 -120 -459 -395 -909 -711
-1473 -1036 -451 -260 -767 -504 -1157 -894 -227 -227 -372 -390 -564 -633
-76 -97 -115 -155 -111 -165 47 -150 102 -303 108 -303 5 0 61 71 126 158 366
489 784 918 1209 1241 168 128 341 239 627 402 682 390 1355 912 1980 1535
147 146 270 260 315 291 114 78 256 147 375 183 78 23 172 75 223 124 19 18
115 128 215 245 154 180 183 220 189 255 12 69 59 460 55 463 -2 2 -148 -168
-326 -376z"/>
</g>
</svg>
