<?xml version="1.0" standalone="no"?>
<!DOCTYPE svg PUBLIC "-//W3C//DTD SVG 20010904//EN"
 "http://www.w3.org/TR/2001/REC-SVG-20010904/DTD/svg10.dtd">
<svg version="1.0" xmlns="http://www.w3.org/2000/svg"
 width="900.000000pt" height="700.000000pt" viewBox="0 0 900.000000 700.000000"
 preserveAspectRatio="xMidYMid meet">

<g transform="translate(0.000000,700.000000) scale(0.100000,-0.100000)"
fill="#000000" stroke="none">
<path d="M2745 5619 c-174 -39 -323 -178 -384 -358 l-26 -76 -3 -1678 c-3
-1451 -1 -1689 12 -1757 42 -224 212 -392 438 -435 114 -22 3296 -22 3420 0
237 41 412 221 448 458 9 59 10 493 5 1744 -7 1813 -3 1711 -64 1832 -28 54
-128 177 -138 167 -2 -2 -15 6 -29 19 -32 30 -100 62 -171 80 -50 13 -288 15
-1763 14 -971 -1 -1722 -5 -1745 -10z m1323 -565 c63 -31 111 -86 135 -151 16
-45 17 -138 17 -1313 0 -830 -4 -1278 -10 -1302 -18 -63 -70 -129 -130 -162
l-55 -31 -449 -3 c-496 -3 -517 -1 -589 58 -20 17 -49 53 -65 78 l-27 47 -3
1290 c-2 995 0 1300 10 1335 14 55 105 150 158 167 23 7 192 11 496 12 l460 1
52 -26z m1877 2 c60 -28 116 -87 139 -147 15 -40 16 -113 14 -794 -3 -704 -4
-752 -21 -787 -26 -52 -83 -107 -136 -132 -44 -20 -62 -21 -486 -24 -502 -2
-514 -1 -592 71 -24 22 -54 59 -66 82 l-22 40 0 765 0 765 27 46 c32 54 77 95
133 120 37 17 76 19 500 19 l460 0 50 -24z"/>
</g>
</svg>
