<?xml version="1.0" standalone="no"?>
<!DOCTYPE svg PUBLIC "-//W3C//DTD SVG 20010904//EN"
 "http://www.w3.org/TR/2001/REC-SVG-20010904/DTD/svg10.dtd">
<svg version="1.0" xmlns="http://www.w3.org/2000/svg"
 width="225.000000pt" height="225.000000pt" viewBox="0 0 225.000000 225.000000"
 preserveAspectRatio="xMidYMid meet">

<g transform="translate(0.000000,225.000000) scale(0.100000,-0.100000)"
fill="#000000" stroke="none">
<path d="M379 1667 c-18 -12 -44 -40 -56 -62 -23 -40 -23 -42 -23 -487 0 -292
4 -456 11 -475 14 -38 57 -83 96 -99 26 -11 158 -14 717 -14 459 0 694 3 713
11 38 14 83 57 99 96 11 26 14 121 14 476 0 439 0 443 -22 487 -13 25 -38 55
-57 67 l-34 23 -712 0 -712 0 -34 -23z m1453 -74 c15 -17 -5 -33 -302 -243
-313 -222 -319 -225 -374 -228 -42 -2 -65 2 -99 20 -70 36 -667 412 -667 420
0 4 10 16 22 28 21 20 31 20 713 20 646 0 693 -1 707 -17z m27 -934 c-25 -48
-34 -49 -734 -49 -700 0 -709 1 -734 48 -11 21 -17 802 -6 802 2 0 145 -88
317 -197 172 -108 327 -202 343 -209 49 -20 118 -27 162 -15 27 7 153 90 350
230 l308 218 3 -404 c1 -277 -1 -410 -9 -424z"/>
</g>
</svg>
