<?xml version="1.0" standalone="no"?>
<!DOCTYPE svg PUBLIC "-//W3C//DTD SVG 20010904//EN"
 "http://www.w3.org/TR/2001/REC-SVG-20010904/DTD/svg10.dtd">
<svg version="1.0" xmlns="http://www.w3.org/2000/svg"
 width="260.000000pt" height="260.000000pt" viewBox="0 0 260.000000 260.000000"
 preserveAspectRatio="xMidYMid meet">

<g transform="translate(0.000000,260.000000) scale(0.100000,-0.100000)"
fill="#000000" stroke="none">
<path d="M1170 2595 c-8 -2 -49 -9 -90 -15 -165 -26 -357 -104 -510 -205 -100
-66 -283 -250 -349 -350 -294 -449 -292 -1008 4 -1455 63 -95 248 -281 342
-343 107 -71 216 -124 333 -161 268 -87 533 -87 800 0 204 65 352 157 511 314
203 200 321 426 369 708 56 323 -17 658 -205 942 -64 96 -249 281 -345 345
-223 147 -487 227 -746 224 -55 -1 -106 -3 -114 -4z m225 -155 c272 -26 500
-128 691 -312 95 -92 157 -169 211 -266 210 -375 194 -828 -41 -1191 -55 -86
-186 -225 -276 -292 -91 -69 -267 -154 -380 -184 -345 -90 -708 -20 -987 189
-83 63 -215 203 -269 287 -235 363 -251 816 -41 1191 54 97 116 174 211 266
189 181 412 284 679 312 39 4 77 8 82 9 6 0 60 -4 120 -9z"/>
<path d="M945 2136 c-56 -34 -71 -48 -73 -70 -3 -20 25 -77 104 -214 122 -213
149 -252 171 -252 18 0 138 64 166 88 9 8 17 24 17 34 0 19 -218 406 -248 441
-23 26 -60 19 -137 -27z"/>
<path d="M775 1986 c-109 -74 -138 -127 -136 -256 2 -256 152 -619 385 -930
131 -175 312 -335 420 -370 21 -7 64 -10 95 -8 60 4 171 49 171 68 0 9 -223
405 -235 418 -1 1 -22 -3 -46 -9 -113 -30 -256 79 -356 272 -87 168 -95 327
-21 406 16 17 19 28 12 42 -22 45 -229 401 -234 401 -3 0 -28 -15 -55 -34z"/>
<path d="M1595 1044 c-81 -49 -97 -64 -92 -90 2 -11 59 -116 126 -232 93 -161
129 -214 146 -218 17 -4 45 7 97 37 40 23 76 47 80 53 19 27 -2 75 -115 271
-142 244 -138 242 -242 179z"/>
</g>
</svg>
