<?xml version="1.0" standalone="no"?>
<!DOCTYPE svg PUBLIC "-//W3C//DTD SVG 20010904//EN"
 "http://www.w3.org/TR/2001/REC-SVG-20010904/DTD/svg10.dtd">
<svg version="1.0" xmlns="http://www.w3.org/2000/svg"
 width="225.000000pt" height="225.000000pt" viewBox="0 0 225.000000 225.000000"
 preserveAspectRatio="xMidYMid meet">

<g transform="translate(0.000000,225.000000) scale(0.100000,-0.100000)"
fill="#000000" stroke="none">
<path d="M1398 2192 c-43 -31 -77 -62 -75 -68 3 -18 581 -793 591 -793 11 -1
156 107 156 115 0 5 -570 776 -589 796 -3 4 -41 -19 -83 -50z"/>
<path d="M1043 1852 l-61 -75 126 -106 c462 -387 637 -531 643 -529 11 5 119
136 118 145 0 6 -624 530 -737 619 l-27 21 -62 -75z"/>
<path d="M769 1424 c-22 -48 -36 -91 -32 -95 9 -9 883 -419 894 -419 3 0 24
40 46 89 l41 89 -447 207 c-245 115 -450 210 -454 212 -4 3 -26 -35 -48 -83z"/>
<path d="M620 953 c-12 -52 -20 -96 -18 -97 1 -1 214 -46 473 -100 259 -53
477 -99 487 -102 16 -5 23 16 52 161 l6 30 -257 53 c-142 29 -362 75 -490 101
l-232 49 -21 -95z"/>
<path d="M170 400 l0 -400 905 0 905 0 0 400 0 400 -100 0 -100 0 0 -300 0
-300 -705 0 -705 0 0 300 0 300 -100 0 -100 0 0 -400z"/>
<path d="M570 500 l0 -100 505 0 505 0 0 100 0 100 -505 0 -505 0 0 -100z"/>
</g>
</svg>
