<svg width="80" height="80" viewBox="0 0 80 80" fill="none" xmlns="http://www.w3.org/2000/svg">
<path d="M39.9998 40C34.5915 40 29.9616 38.0743 26.1103 34.2229C22.2589 30.3715 20.3332 25.7416 20.3332 20.3333C20.3332 14.925 22.2589 10.2951 26.1103 6.44371C29.9616 2.59232 34.5915 0.666626 39.9998 0.666626C45.4082 0.666626 50.038 2.59232 53.8894 6.44371C57.7408 10.2951 59.6665 14.925 59.6665 20.3333C59.6665 25.7416 57.7408 30.3715 53.8894 34.2229C50.038 38.0743 45.4082 40 39.9998 40ZM0.666504 79.3333V65.5666C0.666504 62.7805 1.38434 60.2206 2.82001 57.8868C4.25567 55.553 6.16006 53.7699 8.53317 52.5375C13.6137 49.9972 18.7762 48.0928 24.0207 46.8243C29.2651 45.5558 34.5915 44.9199 39.9998 44.9166C45.4082 44.9166 50.7346 45.5525 55.979 46.8243C61.2235 48.0961 66.386 50.0005 71.4665 52.5375C73.8429 53.7666 75.7489 55.5497 77.1846 57.8868C78.6203 60.2238 79.3365 62.7838 79.3332 65.5666V79.3333H0.666504Z" fill="#E8D8C4"/>
</svg>
