<svg width="50" height="50" viewBox="0 0 50 50" fill="none" xmlns="http://www.w3.org/2000/svg">
<path d="M50 25C50 38.8071 38.8071 50 25 50C11.1929 50 0 38.8071 0 25C0 11.1929 11.1929 0 25 0C38.8071 0 50 11.1929 50 25Z" fill="#E8D8C4"/>
<path d="M25.7794 19.8399L25.7793 19.8398C25.3263 19.3867 24.5878 19.3867 24.1347 19.8398L14.8418 29.1328C14.6101 29.3644 14.5 29.6618 14.5 29.959C14.5 30.256 14.6166 30.5561 14.8418 30.7813C15.2948 31.2344 16.0333 31.2344 16.4864 30.7813L24.957 22.3106L33.2988 30.6524C33.7519 31.1055 34.4903 31.1055 34.9434 30.6524C35.3965 30.1993 35.3965 29.4608 34.9434 29.0078L25.7794 19.8399Z" fill="#6D2932" stroke="#6D2932"/>
</svg>
