<svg width="53" height="53" viewBox="0 0 53 53" fill="none" xmlns="http://www.w3.org/2000/svg">
<path d="M10.6589 22.9372C14.8989 31.27 21.73 38.0717 30.0628 42.3411L36.5406 35.8633C37.3356 35.0683 38.5133 34.8033 39.5439 35.1567C42.8417 36.2461 46.4044 36.835 50.0556 36.835C51.675 36.835 53 38.16 53 39.7794V50.0556C53 51.675 51.675 53 50.0556 53C22.4072 53 0 30.5928 0 2.94444C0 1.325 1.325 0 2.94444 0H13.25C14.8694 0 16.1944 1.325 16.1944 2.94444C16.1944 6.625 16.7833 10.1583 17.8728 13.4561C18.1967 14.4867 17.9611 15.635 17.1367 16.4594L10.6589 22.9372Z" fill="#E8D8C4"/>
</svg>
