<svg width="50" height="50" viewBox="0 0 50 50" fill="none" xmlns="http://www.w3.org/2000/svg">
<path d="M36.5201 30.4301C36.5201 32.5301 37.1176 33.3676 38.6801 33.3676C42.1626 33.3676 44.3801 28.9301 44.3801 21.5501C44.3801 10.2701 36.1601 4.87009 25.8976 4.87009C15.3401 4.87009 5.73762 11.9501 5.73762 25.3301C5.73762 38.1101 14.1376 45.0701 27.0376 45.0701C31.4176 45.0701 34.3576 44.5901 38.8551 43.0901L39.8201 47.1076C35.3801 48.5501 30.6351 48.9676 26.9776 48.9676C10.0576 48.9676 0.995117 39.6676 0.995117 25.3276C0.995117 10.8676 11.4976 1.02759 25.9576 1.02759C41.0176 1.02759 48.9951 10.0276 48.9951 21.0676C48.9951 30.4276 46.0576 37.5676 36.8176 37.5676C32.6151 37.5676 29.8576 35.8876 29.4976 32.1651C28.4176 36.3051 25.5376 37.5676 21.6351 37.5676C16.4151 37.5676 12.0351 33.5451 12.0351 25.4476C12.0351 17.2876 15.8776 12.2476 22.7776 12.2476C26.4376 12.2476 28.7176 13.6876 29.7326 15.9676L31.4751 12.7876H36.5151V30.4301H36.5201ZM29.1426 22.5101C29.1426 19.2126 26.6801 17.8301 24.6401 17.8301C22.4201 17.8301 19.9626 19.6276 19.9626 24.9101C19.9626 29.1101 21.8226 31.4501 24.6401 31.4501C26.6201 31.4501 29.1426 30.1901 29.1426 26.7101V22.5101Z" fill="#E8D8C4"/>
</svg>
