<svg width="36" height="34" viewBox="0 0 36 34" fill="none" xmlns="http://www.w3.org/2000/svg">
<path d="M20.118 5.68302C20.544 6.82902 20.866 8.27902 20.959 9.96702L21.159 13.65L24.723 12.704C26.043 12.353 27.378 12.168 28.583 12.168C28.743 12.168 28.901 12.171 29.057 12.178L27.23 14.997L30.369 16.208C29.411 16.967 28.132 17.722 26.555 18.331L23.114 19.659L25.115 22.758C26.033 24.178 26.624 25.54 26.953 26.718L23.709 25.853L23.527 29.21C22.508 28.533 21.395 27.55 20.329 26.237L18 23.374L15.672 26.236C14.606 27.548 13.493 28.531 12.474 29.208L12.294 25.854L9.04603 26.718C9.37503 25.54 9.96703 24.178 10.885 22.757L12.889 19.658L9.44703 18.33C7.87003 17.721 6.59103 16.967 5.63303 16.208L8.76803 15L6.94103 12.177C7.09603 12.171 7.25403 12.167 7.41403 12.167C8.62003 12.167 9.95503 12.352 11.275 12.703L14.839 13.65L15.041 9.96702C15.133 8.27902 15.456 6.82902 15.881 5.68302L18 8.29202L20.118 5.68302ZM20.308 0.692017L18 3.53302L15.692 0.692017C13.703 2.22402 12.271 5.68402 12.046 9.80402C10.429 9.37402 8.85403 9.16702 7.41403 9.16702C5.30403 9.16702 3.48503 9.61202 2.25303 10.456L4.24203 13.529L0.827026 14.845C1.66903 17.211 4.51703 19.642 8.36703 21.128C6.12603 24.593 5.25103 28.234 5.96003 30.644L9.49703 29.703L9.69303 33.357C12.205 33.287 15.396 31.33 18 28.129C20.603 31.33 23.796 33.287 26.306 33.357L26.504 29.702L30.039 30.645C30.749 28.234 29.874 24.595 27.635 21.128C31.484 19.643 34.331 17.21 35.173 14.845L31.758 13.527L33.748 10.457C32.515 9.61302 30.695 9.16702 28.584 9.16702C27.146 9.16702 25.571 9.37402 23.954 9.80302C23.729 5.68402 22.297 2.22402 20.308 0.692017Z" fill="#EA596E"/>
</svg>
