<svg width="50" height="50" viewBox="0 0 50 50" fill="none" xmlns="http://www.w3.org/2000/svg">
<path d="M25.0002 1.97914C19.5981 1.90136 14.3484 3.76997 10.2104 7.2435C6.07237 10.717 3.32235 15.5635 2.46286 20.8974C1.60338 26.2312 2.69183 31.6963 5.5293 36.2938C8.36677 40.8914 12.7638 44.3144 17.9169 45.9375C18.9586 46.1458 19.7919 45 19.7919 44.0625V41.0416C13.5419 42.3958 11.5627 38.0208 11.5627 38.0208C11.1563 36.7021 10.3568 35.5391 9.27106 34.6875C7.18773 33.2291 9.37523 33.3333 9.37523 33.3333C10.0709 33.3888 10.744 33.606 11.3408 33.9677C11.9376 34.3294 12.4417 34.8256 12.8127 35.4166C14.5836 38.4375 18.5419 38.125 19.7919 37.6041C19.6825 36.5684 19.8628 35.5226 20.3127 34.5833C13.2294 33.3333 9.37523 29.1666 9.37523 23.5416C9.30071 20.608 10.3862 17.7633 12.3961 15.625C11.8362 14.5906 11.5694 13.423 11.6244 12.2481C11.6795 11.0733 12.0544 9.93574 12.7086 8.95831C13.9666 8.98305 15.2065 9.26364 16.3526 9.78298C17.4988 10.3023 18.5272 11.0495 19.3752 11.9791C21.184 11.3619 23.0902 11.0795 25.0002 11.1458C26.9021 11.0869 28.8012 11.333 30.6252 11.875C31.486 10.969 32.5192 10.2443 33.664 9.74343C34.8089 9.24255 36.0424 8.97561 37.2919 8.95831C37.9318 9.93869 38.3065 11.0682 38.3796 12.2367C38.4526 13.4051 38.2214 14.5725 37.7086 15.625C39.6806 17.7797 40.7279 20.6225 40.6252 23.5416C40.6252 29.1666 36.7711 33.3333 29.6877 34.5833C30.1377 35.5226 30.318 36.5684 30.2086 37.6041V44.0625C30.2082 44.3177 30.2599 44.5704 30.3606 44.8049C30.4612 45.0395 30.6087 45.251 30.794 45.4265C30.9793 45.6021 31.1985 45.7379 31.4382 45.8258C31.6778 45.9136 31.9329 45.9517 32.1877 45.9375C37.2181 44.1921 41.4708 40.727 44.1964 36.1529C46.9219 31.5789 47.9453 26.1895 47.0861 20.9347C46.2269 15.6799 43.5403 10.8972 39.4999 7.42938C35.4594 3.96159 30.3245 2.03144 25.0002 1.97914Z" fill="#E8D8C4"/>
</svg>
