<svg width="50" height="51" viewBox="0 0 50 51" fill="none" xmlns="http://www.w3.org/2000/svg">
<path d="M11.639 16.407H1.60137C1.15589 16.407 0.794922 16.7689 0.794922 17.2152V49.5328C0.794922 49.9792 1.15589 50.341 1.60137 50.341H11.639C12.0844 50.341 12.4454 49.9792 12.4454 49.5328V17.2152C12.4454 16.7689 12.0844 16.407 11.639 16.407Z" fill="#E8D8C4"/>
<path d="M6.62355 0.341064C2.97129 0.341064 0 3.31567 0 6.97194C0 10.6298 2.97129 13.6056 6.62355 13.6056C10.2729 13.6056 13.2418 10.6297 13.2418 6.97194C13.2419 3.31567 10.2729 0.341064 6.62355 0.341064Z" fill="#E8D8C4"/>
<path d="M37.1699 15.6038C33.1384 15.6038 30.1582 17.3406 28.3507 19.3142V17.2152C28.3507 16.7689 27.9897 16.407 27.5442 16.407H17.9315C17.486 16.407 17.125 16.7689 17.125 17.2152V49.5328C17.125 49.9792 17.486 50.341 17.9315 50.341H27.9471C28.3926 50.341 28.7536 49.9792 28.7536 49.5328V33.5431C28.7536 28.1549 30.2139 26.0558 33.9616 26.0558C38.0432 26.0558 38.3676 29.4209 38.3676 33.8203V49.5329C38.3676 49.9794 38.7286 50.3412 39.174 50.3412H49.1934C49.6389 50.3412 49.9999 49.9794 49.9999 49.5329V31.8062C49.9999 23.7942 48.4755 15.6038 37.1699 15.6038Z" fill="#E8D8C4"/>
</svg>
